<svg width="800" height="600" xmlns="http://www.w3.org/2000/svg">
 <title>Drawing</title>
 <defs>
  <linearGradient id="svg_370" x1="-18.7984" y1="-6.12021" x2="-18.7984" y2="66.79157">
   <stop stop-color="#FEF2CF"/>
   <stop offset="1" stop-color="#FBCC82"/>
  </linearGradient>
  <linearGradient id="svg_368" x1="18.61851" y1="-12.80489" x2="18.61851" y2="33.84243">
   <stop stop-color="#FEF2CF"/>
   <stop offset="1" stop-color="#FBCC82"/>
  </linearGradient>
  <linearGradient id="svg_366" x1="4.17835" y1="-12.59896" x2="4.17835" y2="53.87978">
   <stop stop-color="#FEF2CF"/>
   <stop offset="1" stop-color="#FBCC82"/>
  </linearGradient>
  <linearGradient id="svg_364" x1="2.56765" y1="-6.96284" x2="2.56765" y2="39.25099">
   <stop stop-color="#FEF2CF"/>
   <stop offset="1" stop-color="#FBCC82"/>
  </linearGradient>
  <linearGradient id="svg_362" x1="0.41241" y1="-4.60361" x2="0.41241" y2="25.17251">
   <stop stop-color="#FEF2CF"/>
   <stop offset="1" stop-color="#FBCC82"/>
  </linearGradient>
  <linearGradient id="svg_360" x1="0.17297" y1="-1.13076" x2="0.17297" y2="25.51768">
   <stop stop-color="#FEF2CF"/>
   <stop offset="1" stop-color="#FBCC82"/>
  </linearGradient>
  <linearGradient id="svg_358" x1="2.53817" y1="0" x2="2.53817" y2="86.93352">
   <stop stop-color="#FEF2CF"/>
   <stop offset="1" stop-color="#FBCC82"/>
  </linearGradient>
  <linearGradient id="svg_356" x1="1.23066" y1="-0.91658" x2="1.23066" y2="11.7299">
   <stop stop-color="#FEF2CF"/>
   <stop offset="1" stop-color="#FBCC82"/>
  </linearGradient>
  <linearGradient id="svg_354" x1="6.25911" y1="-5.05629" x2="6.25911" y2="36.10758">
   <stop stop-color="#FEF2CF"/>
   <stop offset="1" stop-color="#FBCC82"/>
  </linearGradient>
  <linearGradient id="svg_352" x1="0.5" y1="-0.10684" x2="0.5" y2="1">
   <stop stop-color="#FEF2CF"/>
   <stop offset="1" stop-color="#FBCC82"/>
  </linearGradient>
  <linearGradient id="svg_350" x1="3.80958" y1="-0.71681" x2="3.80958" y2="7.41465">
   <stop stop-color="#FBC87B"/>
   <stop offset="1" stop-color="#F7A22D"/>
  </linearGradient>
  <linearGradient id="svg_348" x1="0.5" y1="0" x2="0.5" y2="1">
   <stop stop-color="#FBC87B"/>
   <stop offset="1" stop-color="#F7A22D"/>
  </linearGradient>
  <linearGradient id="svg_346" x1="0.5" y1="0" x2="0.5" y2="1">
   <stop stop-color="#A76001"/>
   <stop offset="1" stop-color="#7A4602"/>
  </linearGradient>
  <linearGradient id="svg_344" x1="0.5" y1="0" x2="0.5" y2="1">
   <stop stop-color="#FEF2CF"/>
   <stop offset="1" stop-color="#FBCC82"/>
  </linearGradient>
  <linearGradient id="svg_342" x1="0.5" y1="0" x2="0.5" y2="1">
   <stop stop-color="#FBC87B"/>
   <stop offset="1" stop-color="#F7A22D"/>
  </linearGradient>
  <linearGradient id="svg_340" x1="0.5" y1="0" x2="0.5" y2="1">
   <stop stop-color="#F79F26"/>
   <stop offset="1" stop-color="#DD7F01"/>
  </linearGradient>
  <linearGradient id="svg_338" x1="0.5" y1="0" x2="0.5" y2="1">
   <stop stop-color="#F79F26"/>
   <stop offset="1" stop-color="#DD7F01"/>
  </linearGradient>
  <linearGradient id="svg_336" x1="-11.26845" y1="-0.55847" x2="-11.26845" y2="25.76833">
   <stop stop-color="#DA7D01"/>
   <stop offset="1" stop-color="#AC6201"/>
  </linearGradient>
  <linearGradient id="svg_334" x1="-12.85155" y1="-0.00002" x2="-12.85155" y2="35.58421">
   <stop stop-color="#DA7D01"/>
   <stop offset="1" stop-color="#AC6201"/>
  </linearGradient>
  <linearGradient id="svg_332" x1="-9.0665" y1="-0.44102" x2="-9.0665" y2="11.72105">
   <stop stop-color="#DA7D01"/>
   <stop offset="1" stop-color="#AC6201"/>
  </linearGradient>
  <linearGradient id="svg_330" x1="-10.60628" y1="-3.91668" x2="-10.60628" y2="20.92796">
   <stop stop-color="#DA7D01"/>
   <stop offset="1" stop-color="#AC6201"/>
  </linearGradient>
  <linearGradient id="svg_328" x1="-13.63389" y1="-8.26178" x2="-13.63389" y2="17.75469">
   <stop stop-color="#DA7D01"/>
   <stop offset="1" stop-color="#AC6201"/>
  </linearGradient>
  <linearGradient id="svg_326" x1="-16.96887" y1="-11.8525" x2="-16.96887" y2="17.72111">
   <stop stop-color="#DA7D01"/>
   <stop offset="1" stop-color="#AC6201"/>
  </linearGradient>
  <linearGradient id="svg_324" x1="-9.95256" y1="-10.26521" x2="-9.95256" y2="12.0648">
   <stop stop-color="#DA7D01"/>
   <stop offset="1" stop-color="#AC6201"/>
  </linearGradient>
  <linearGradient id="svg_322" x1="-12.21976" y1="-5.62937" x2="-12.21976" y2="4.01311">
   <stop stop-color="#DA7D01"/>
   <stop offset="1" stop-color="#AC6201"/>
  </linearGradient>
  <linearGradient id="svg_320" x1="-6.44556" y1="-4.81834" x2="-6.44556" y2="1.88335">
   <stop stop-color="#DA7D01"/>
   <stop offset="1" stop-color="#AC6201"/>
  </linearGradient>
  <linearGradient id="svg_318" x1="-7.99287" y1="-8.94682" x2="-7.99287" y2="1">
   <stop stop-color="#DA7D01"/>
   <stop offset="1" stop-color="#AC6201"/>
  </linearGradient>
  <linearGradient id="svg_316" x1="-16.54905" y1="-24.11246" x2="-16.54905" y2="2.27751">
   <stop stop-color="#DA7D01"/>
   <stop offset="1" stop-color="#AC6201"/>
  </linearGradient>
  <linearGradient id="svg_314" x1="0.92495" y1="-0.3469" x2="0.92495" y2="1.07829">
   <stop stop-color="#DA7D01"/>
   <stop offset="1" stop-color="#AC6201"/>
  </linearGradient>
  <linearGradient id="svg_312" x1="0.5" y1="0" x2="0.5" y2="1">
   <stop stop-color="#FEF2CF"/>
   <stop offset="1" stop-color="#FBCC82"/>
  </linearGradient>
  <linearGradient id="svg_310" x1="0.5" y1="0" x2="0.5" y2="1">
   <stop stop-color="#A76001"/>
   <stop offset="1" stop-color="#7A4602"/>
  </linearGradient>
  <linearGradient id="svg_308" x1="-7.68669" y1="-19.1148" x2="-7.68669" y2="22.29239">
   <stop stop-color="#F79F26"/>
   <stop offset="1" stop-color="#DD7F01"/>
  </linearGradient>
  <linearGradient id="svg_306" x1="0.53637" y1="-5.24661" x2="0.53637" y2="8.44353">
   <stop stop-color="#F79F26"/>
   <stop offset="1" stop-color="#DD7F01"/>
  </linearGradient>
  <linearGradient id="svg_304" x1="-3.74819" y1="-17.84372" x2="-3.74819" y2="18.58652">
   <stop stop-color="#F79F26"/>
   <stop offset="1" stop-color="#DD7F01"/>
  </linearGradient>
  <linearGradient id="svg_302" x1="0.59019" y1="0" x2="0.59019" y2="1">
   <stop stop-color="#F79F26"/>
   <stop offset="1" stop-color="#DD7F01"/>
  </linearGradient>
 </defs>
 <g id="Layer_1">
  <title>Layer 1</title>
  <path stroke="null" id="svg_349" fill-rule="evenodd" clip-rule="evenodd" d="m465.24056,44.02027l7.87192,9.08312l1.71979,-1.68609l2.15324,-10.45646l2.57271,-4.88149l-2.86633,-3.76649l-7.15884,0.55749l-4.2925,6.26844l0,4.88149l0.00001,-0.00001z" fill="url(#svg_350)"/>
  <path stroke="null" id="svg_347" fill-rule="evenodd" clip-rule="evenodd" d="m586.73111,135.31367l-1.78971,-19.21323l-5.46701,-3.01864l12.96141,-8.70238l-1.83166,-5.8605l-24.09117,-1.94444l-2.92226,3.72571l-6.5716,0.5303l-0.72707,4.96308l-5.28524,-0.35353l0,-6.92111l6.01231,-1.94444l2.37696,-4.79991l-1.27237,-12.59126l-2.37696,-0.89743l-2.92226,1.78127l-0.18177,-4.62314l-5.66275,2.1348l-3.83109,-4.256l1.46812,-6.92111l4.73994,4.07924l2.74049,-2.1348l4.01286,4.26961l2.37696,-5.3302l-0.5453,-6.39081l4.37641,-3.54894l7.6622,0.70708l12.77965,-9.40944l-3.10402,-3.54894l6.38983,0.89743l-0.18177,-6.03728l-6.93513,1.23736l-2.01342,-4.256l-9.31209,-1.78127l3.66331,-4.43277l-4.75391,-3.37217l4.37641,-3.01864l-5.46701,-6.92111l-15.52014,8.87914l-0.90883,7.27464l-4.19463,5.31661l10.40269,4.09284l-5.66275,2.47474l-16.79252,-4.43277l-19.51902,12.60485l-29.20863,15.43313l-7.84397,12.42808l0.72707,3.72571l-5.29921,1.42773l-7.48043,6.56758l5.29921,6.39081l4.73994,-1.42773l7.1169,3.90247l-0.72707,6.92111l-6.5716,0.72067l-4.37641,2.47474l-9.31209,-5.67014l0,11.53066l-9.49385,6.92111l-3.66331,6.90752l15.75783,11.48986l0.13982,0.09518l0,7.20666l-0.08389,0.09518l-11.81488,13.44789l2.92226,7.35623l5.64878,2.39315l7.77405,0l0.09788,0.19037l2.97819,6.02368l4.90772,0.70708l0.15381,0.0272l0.08389,0.14957l3.14597,5.41179l6.58557,-3.08662l0.12584,-0.05439l0.12584,0.04079l6.1661,1.91724l4.69798,-4.06564l0.08389,-0.08159l0.11186,-0.01359l7.24273,-0.47591l5.38312,-5.47979l-0.97875,-5.27581l-0.05593,-0.28555l0.27964,-0.08159l5.42506,-1.68609l1.46812,-5.01746l0.0699,-0.21755l0.22371,-0.0272l4.61409,-0.46231l1.45414,-4.256l0.0699,-0.17677l0.18177,-0.04079l8.50111,-1.94444l2.20918,-3.82088l0.09788,-0.16316l0.18177,-0.01359l12.70974,-0.73426l0.25169,-0.01359l0.08389,0.23116l2.95023,7.85933l8.83669,-2.62431l0.05593,-0.01359l0.05593,0l9.67562,0.23116l7.80202,-21.76954l0.12584,-0.36714l0.34955,0.17677l4.71197,2.40675l6.01231,-1.76767l0,-0.00008l0,-0.00003z" fill="url(#svg_348)"/>
  <path stroke="null" id="svg_345" fill-rule="evenodd" clip-rule="evenodd" d="m485.52861,307.53919l4.87976,-3.12741l3.28579,-2.66511l4.55817,-1.06061l-1.45414,-9.05591l8.02573,-2.48833l6.20806,-5.31661l5.66275,-0.17677l-4.20861,5.84691l4.02685,3.38578l5.83054,-6.39081l1.46812,-10.11652l5.28524,-1.95803l4.19463,-5.3302l-4.37641,-3.19541l-3.83109,4.62314l-4.01286,-3.72571l-1.0906,-18.2886l-3.46756,-10.82358l1.0906,-7.99531l6.75336,-9.39585l3.83109,-0.17677l1.83166,-5.3302l7.84397,10.47005l5.46701,-0.88383l0.37752,-3.90247l-1.28636,-7.99531l-1.38423,-5.61575l-5.27126,-2.89625l-0.13982,-0.06798l-0.02796,-0.16316l-1.00671,-5.11265l-3.39765,-3.07303l-5.48098,0.48951l-0.25169,0.01359l-0.09788,-0.23116l-3.25783,-8.29445l-4.68401,-0.96542l-0.13982,-0.0272l-0.08389,-0.10878l-7.50839,-10.61962l-5.29921,5.3982l-0.09788,0.09518l-0.12584,0l-7.25672,0.48951l-4.75391,4.13363l-0.13982,0.12238l-0.18177,-0.05439l-6.23602,-1.94444l-6.73938,3.16821l-0.27964,0.12238l-0.16778,-0.27196l-3.21589,-5.53417l-4.2925,-0.62549l2.76846,5.61575l0.09788,0.17677l-0.11186,0.14957l-3.31376,4.70473l-0.05593,0.08159l-0.09788,0.0272l-4.26454,1.71328l-9.11633,8.15849l3.85907,4.45998l0.20973,0.23116l-0.2377,0.21755l-3.60738,3.27699l2.8943,4.21522l0.05593,0.06798l0,0.09518l0.25169,5.05826l4.71197,4.10643l0.13982,0.10878l-0.01399,0.16316l-0.76901,8.17208l-0.01399,0.10878l-0.0699,0.08159l-4.32048,4.69112l-0.09788,0.09518l-0.12584,0.01359l-7.25672,0.73426l-7.87192,7.16586l3.18791,5.95569l0.13982,0.25835l-0.2377,0.17677l-8.54308,5.84691l-1.21644,5.95569l12.36018,24.95135l5.70471,-3.69851l0.13982,-0.08159l0.15381,0.04079l12.91947,4.18802l0.19575,0.06798l0.04195,0.19037l1.42618,6.9755l0.02796,0.10878l-0.05593,0.10878l-3.07607,5.43899l2.32102,4.51436l5.13143,-3.67131l0.09788,-0.06798l0.09788,0l6.61354,0l0.19575,0l0.09788,0.16316l3.25783,5.53417l-0.00005,-0.00002l0.00002,0z" fill="url(#svg_346)"/>
  <path stroke="null" id="svg_343" fill-rule="evenodd" clip-rule="evenodd" d="m495.48386,522.77351l-0.69911,20.70894l3.83109,6.39081l-14.96086,1.25097l-4.92171,10.47005l13.87025,13.84222l0.36353,5.15344l7.6622,-7.09788l13.14318,0.17677l9.47987,-7.465l5.66275,-11.00035l2.74049,-30.17279l3.83109,-15.80025l-2.54474,-18.47897l-3.7472,-1.0334l-0.20973,-0.05439l-0.04195,-0.20396l-0.90883,-4.41918l-6.23602,-4.33759l-6.99105,5.09905l4.15268,4.36479l6.59956,0.5439l0.36353,0.0272l-0.04195,0.33994l-1.51007,10.00774l-0.04195,0.28555l-0.27964,0l-4.68401,0.17677l0.71308,6.37721l0.01399,0.20396l-0.16778,0.10878l-6.73938,4.36479l-0.0699,0.05439l-0.09788,0l-11.07383,0.72067l-2.76846,3.53535l2.15324,4.18802l0.19575,0.38073l-0.43345,0.08159l-5.60683,1.21018l0.00003,-0.00005l0.00002,0z" fill="url(#svg_344)"/>
  <path stroke="null" id="svg_341" fill-rule="evenodd" clip-rule="evenodd" d="m489.37369,500.44646l4.86578,7.72337l-1.81767,5.68375l2.9642,8.26726l5.13143,-1.1014l-2.04138,-3.99765l-0.09788,-0.17677l0.12584,-0.16316l2.99218,-3.82088l0.09788,-0.12238l0.15381,-0.01359l11.12976,-0.72067l6.50168,-4.20161l-0.72707,-6.54038l-0.04195,-0.35353l0.36353,-0.01359l4.7679,-0.17677l1.41219,-9.38226l-6.38983,-0.51671l-0.12584,-0.01359l-0.08389,-0.09518l-4.50224,-4.73192l-0.25169,-0.27196l0.3076,-0.21755l7.48043,-5.45258l0.19575,-0.14957l0.20973,0.13598l6.54362,4.55516l0.11186,0.08159l0.02796,0.12238l0.89485,4.35118l3.34172,0.92463l1.66388,-20.9401l-2.37696,-6.56758l-10.58446,-20.9401l-3.46756,-4.07924l-3.10402,-14.73966l-2.1113,-4.8951l-0.74105,-0.78865l-7.91387,-3.1818l-2.74049,-3.19541l2.37696,-4.62314l-5.84451,-2.29797l-12.22036,-2.1348l-9.49385,4.7863l-3.28579,14.03258l-4.01286,-4.97667l-4.57215,5.68375l-3.83109,-10.82358l-8.02573,4.7863l-6.75336,-1.06061l0.36353,-6.21405l8.76679,-21.29363l2.1812,-21.30724l2.55872,-10.29328l-2.1812,-8.51202l2.90829,-7.64178l-1.27237,-8.15849l18.42842,-17.56793l5.84451,1.06061l0.5453,-2.1348l-1.6359,-2.48833l2.57271,-1.6453l-3.17394,-5.3982l-6.30593,0l-5.35515,3.83449l-0.32159,0.23116l-0.18177,-0.33994l-2.5867,-5.03106l-0.08389,-0.14957l0.08389,-0.14957l3.10402,-5.47979l-1.38423,-6.67635l-12.56992,-4.07924l-5.77461,3.7529l-1.3982,4.90869l-0.0699,0.20396l-0.20973,0.04079l-7.59228,1.08779l-2.20918,3.76649l-0.08389,0.12238l-0.13982,0.04079l-6.61354,1.38693l-0.08389,0.0272l-0.09788,-0.0272l-9.81544,-3.27699l-2.60067,3.29059l5.10348,13.23034l0.02796,0.10878l-0.02796,0.09518l-3.66331,12.61845l5.53691,3.7801l0.11186,0.06798l0.02796,0.10878l3.15996,10.89158l0.0699,0.27196l-0.25169,0.10878l-4.11074,1.86285l0.27964,5.08545l0,0.06798l-0.01399,0.05439l-2.01342,5.31661l-0.0699,0.19037l-0.22371,0.0272l-8.31935,0.5303l-0.55929,6.14605l-0.01399,0.20396l-0.19575,0.06798l-14.13592,5.22142l0,15.96343l0,0.12238l-0.08389,0.09518l-3.2019,3.63053l7.15884,4.81351l0.2377,0.17677l-0.12584,0.25835l-3.88702,7.27464l7.21478,4.58234l0.08389,0.05439l0.04195,0.09518l1.71979,4.18802l0.08389,0.19037l-0.15381,0.16316l-3.87304,4.03845l2.78244,7.62818l11.45135,-5.79252l0.22371,-0.12238l0.18177,0.19037l3.77518,3.97047l0.15381,0.16316l-0.09788,0.20396l-5.6208,11.84339l0.61522,5.72454l0.02796,0.21755l-0.19575,0.10878l-4.2226,2.33876l0.27964,4.67753l9.43792,0l0.18177,0l0.09788,0.14957l4.2925,6.26844l4.72595,-0.28555l7.69016,-6.88031l1.23042,-5.11265l0.05593,-0.24475l0.27964,0l5.76062,0l1.78971,-3.49455l0.11186,-0.21755l0.25169,0.04079l4.08278,0.61189l0.20973,0.0272l0.05593,0.20396l3.77518,11.31309l0.0699,0.19037l-0.15381,0.13598l-2.50279,2.44754l-0.08389,0.08159l-0.11186,0.01359l-9.2981,1.45493l2.32102,4.79991l0.09788,0.20396l-0.15381,0.16316l-3.70526,3.90247l-0.92282,5.11265l-0.02796,0.08159l-0.05593,0.06798l-5.48098,6.22764l2.349,2.84187l0.15381,0.19037l-0.15381,0.20396l-3.70526,4.81351l0,5.80611l9.88535,4.79991l0.0699,0.0272l0.04195,0.06798l7.95581,10.70121l4.96365,-4.58234l0.11186,-0.09518l0.12584,0.01359l10.66835,0.17677l0.12584,0l0.08389,0.06798l4.72595,3.7121l14.23378,-4.67753l0.58725,-0.19037l-0.15381,0.58469l-1.49608,5.87411l-0.00003,0l0.00001,0.00001z" fill="url(#svg_342)"/>
  <path stroke="null" id="svg_339" fill-rule="evenodd" clip-rule="evenodd" d="m448.99336,510.07348l5.46701,8.38963l5.83054,4.96308l12.41611,-5.84691l1.6359,-4.97667l9.31209,-10.11652l5.0755,-2.25717l1.3283,-5.23503l-13.81433,4.54155l-0.18177,0.06798l-0.13982,-0.12238l-4.78189,-3.7529l-10.41668,-0.17677l-5.11745,4.73192l-6.61354,9.79018l0.00002,0.00003l0.00001,-0.00002z" fill="url(#svg_340)"/>
  <path stroke="null" id="svg_337" fill-rule="evenodd" clip-rule="evenodd" d="m349.66445,478.52735l12.4301,-6.21405l9.49385,3.19541l11.50728,-1.76767l16.79252,16.14019l20.80538,20.95369l8.2075,-3.19541l5.11745,2.29797l3.64932,-1.76767l6.93513,2.1348l3.7472,-0.47591l6.58557,-9.74938l-7.98379,-10.76919l-9.99721,-4.8543l-0.18177,-0.09518l0,-0.20396l0,-6.10526l0,-0.10878l0.05593,-0.09518l3.62137,-4.69112l-2.349,-2.85547l-0.18177,-0.21755l0.18177,-0.20396l5.60683,-6.35001l0.92282,-5.11265l0.02796,-0.09518l0.05593,-0.06798l3.62137,-3.82088l-2.4189,-4.99026l-0.19575,-0.39433l0.44742,-0.06798l9.64765,-1.52291l2.29307,-2.22999l-3.64932,-10.91876l-3.63535,-0.5439l-1.77572,3.45376l-0.09788,0.17677l-0.20973,0l-5.70471,0l-1.20247,4.94948l-0.01399,0.09518l-0.08389,0.06798l-7.85795,7.04349l-0.08389,0.06798l-0.12584,0.01359l-5.03356,0.29914l-0.19575,0.01359l-0.11186,-0.16316l-4.2925,-6.26844l-9.56376,0l-0.32159,0l-0.02796,-0.31274l-0.3076,-5.19424l-0.01399,-0.20396l0.18177,-0.10878l4.20861,-2.33876l-0.60123,-5.58856l-0.01399,-0.09518l0.04195,-0.08159l5.56489,-11.72102l-3.4396,-3.63053l-23.14039,11.69382l0.58725,3.44016l0.04195,0.25835l-0.26566,0.09518l-5.01957,1.83566l-0.09788,0.04079l-0.09788,-0.0272l-4.2925,-0.88383l-14.98882,6.67635l-0.19575,0.08159l-0.16778,-0.13598l-3.62137,-2.93705l-10.82215,3.91606l-0.18177,0.06798l-0.13982,-0.12238l-5.57886,-4.21522l-8.54308,-0.28555l-3.6773,3.56253l-0.22371,0.23116l-0.2377,-0.21755l-3.85907,-3.46735l-2.60067,2.24358l-0.22371,0.19037l-0.22371,-0.17677l-4.87976,-3.84808l-6.06824,2.35236l-5.90045,3.76649l7.46645,4.84069l0.27964,0.19037l-0.19575,0.27196l-2.22315,3.03223l3.4396,3.34498l6.23602,-3.37217l0.29363,-0.14957l0.16778,0.28555l2.97819,5.12624l4.78189,-1.1014l0.37752,-0.09518l0.04195,0.39433l0.69911,9.12389l4.86578,2.7059l0.32159,0.17677l-0.20973,0.29914l-2.74049,3.7801l7.76008,11.29949l-0.00002,-0.00002l-0.00001,0.00004z" fill="url(#svg_338)"/>
  <path stroke="null" id="svg_311" fill-rule="evenodd" clip-rule="evenodd" d="m147.51111,530.85041l15.47819,6.06448l14.23378,3.209l2.92226,11.00035l10.40269,5.31661l7.29867,-0.17677l10.40269,-6.03728l8.02573,2.48833l8.38927,-0.5303l2.19519,3.72571l4.8378,0.20396l1.57999,-5.69734l0.04195,-0.13598l0.12584,-0.06798l4.62808,-2.36597l-4.96365,-5.26222l-0.2377,-0.25835l0.27964,-0.21755l4.8378,-3.80729l-1.83166,-5.37099l-0.15381,-0.43512l0.4754,0l9.20022,0l5.64878,-4.58234l0.11186,-0.09518l0.15381,0.0272l5.06153,0.66628l9.45191,-12.16973l0.08389,-0.12238l0.15381,-0.01359l6.05426,-0.44871l1.81767,-2.88266l0.0699,-0.09518l0.09788,-0.04079l5.18737,-2.05321l3.94296,-4.74551l0.44742,-5.05826l-4.13871,-2.6787l-0.15381,-0.09518l0,-0.17677l0,-4.8951l0,-0.16316l0.13982,-0.09518l9.01846,-6.68995l3.07607,-6.90752l0.05593,-0.13598l0.13982,-0.04079l7.88591,-2.7059l-0.44742,-6.13246l-4.85179,-4.26961l-5.39709,-0.91103l-0.19575,-0.04079l-0.0699,-0.19037l-4.51621,-13.17595l-2.81041,-2.50193l-0.22371,-0.19037l0.18177,-0.24475l2.79642,-3.84808l-0.39149,-3.7801l-3.31376,3.63053l-0.12584,0.12238l-0.18177,-0.0272l-2.81041,-0.40792l-1.59396,5.98289l-0.04195,0.19037l-0.19575,0.05439l-15.07271,3.94327l-0.22371,0.06798l-0.13982,-0.19037l-2.53077,-3.34498l-3.41164,0l-0.08389,0l-0.08389,-0.04079l-3.25783,-1.69968l-1.76175,4.09284l-0.0699,0.13598l-0.13982,0.04079l-7.17281,2.33876l-0.11186,0.0272l-0.11186,-0.0272l-3.70526,-1.27816l-0.88088,4.05204l-0.04195,0.23116l-0.2377,0.0272l-7.29867,0.89743l0.62919,3.48094l4.44631,3.64412l0.26566,0.21755l-0.22371,0.25835l-3.76119,4.33759l-0.69911,6.56758l2.43289,5.53417l0.37752,-1.1014l1.49608,-9.02871l0,-0.05439l0.02796,-0.05439l2.43289,-4.17443l0.11186,-0.19037l0.22371,0.0272l3.15996,0.36714l0.25169,0.0272l0.04195,0.24475l0.55929,3.44016l0.01399,0.06798l-0.01399,0.04079l-1.48211,8.11769l0.55929,7.90012l1.28636,4.3104l0.04195,0.10878l-0.04195,0.10878l-1.67785,4.17443l-0.02796,0.06798l-0.05593,0.05439l-2.57271,2.31156l-0.83893,1.46852l0.89485,2.76029l0.02796,0.10878l-0.04195,0.10878l-1.11858,2.7195l-0.0699,0.16316l-0.16778,0.04079l-2.72652,0.66628l-0.18177,3.01864l0,0.08159l-0.04195,0.06798l-3.55146,5.61575l-0.0699,0.10878l-0.11186,0.04079l-5.29921,1.59091l-3.48154,4.62314l-0.11186,0.16316l-0.18177,-0.0272l-3.9849,-0.33994l-1.06264,5.87411l-0.01399,0.09518l-0.05593,0.06798l-2.99218,3.26339l-0.04195,0.05439l-0.0699,0.0272l-9.54979,4.10643l-1.2584,4.20161l-0.05593,0.16316l-0.16778,0.05439l-6.15213,1.99883l-0.34955,0.10878l-0.08389,-0.33994l-0.88088,-3.42656l-6.48769,-1.22377l-0.25169,-0.05439l-0.02796,-0.24475l-0.5453,-4.60955l-4.50224,-5.60216l-5.98434,0l-0.11186,0l-0.09788,-0.06798l-12.48603,-9.6134l-0.04195,-0.0272l-0.01399,-0.04079l-3.90101,-5.16704l-6.26398,4.33759l-0.08389,0.06798l-0.11186,0l-3.56543,-0.08159l0.16778,0.76146l0.05593,0.17677l-0.13982,0.13598l-1.91555,1.86285l0.69911,2.7059l0.04195,0.17677l-0.11186,0.12238l-2.64261,2.92345l2.36297,4.44637l0.00006,0l-0.00006,0.00003z" fill="url(#svg_312)"/>
  <path stroke="null" id="svg_309" fill-rule="evenodd" clip-rule="evenodd" d="m232.38251,556.14169l3.06208,0.12238l3.10402,5.68375l23.9094,2.12121l16.06544,-9.40944l5.11745,-0.17677l1.6359,-5.15344l7.84397,-7.09788l10.94799,-0.5303l3.28579,3.01864l4.55817,-4.07924l19.35124,3.01864l2.74049,-7.27464l6.5716,-4.43277l-2.74049,-6.56758l2.92226,-17.74469l4.92171,-4.79991l-3.28579,-8.52561l-6.93513,-0.70708l4.93568,-8.87914l8.69687,-5.8605l-7.87192,-11.47627l-0.12584,-0.19037l0.13982,-0.17677l2.6566,-3.65772l-4.69798,-2.61072l-0.15381,-0.09518l-0.01399,-0.17677l-0.68512,-8.91994l-4.64206,1.0742l-0.25169,0.05439l-0.12584,-0.21755l-2.93624,-5.07185l-6.1661,3.33137l-0.22371,0.12238l-0.18177,-0.17677l-3.83109,-3.72571l-0.20973,-0.20396l0.16778,-0.23116l2.19519,-2.97784l-7.60627,-4.93587l-0.0699,-0.04079l-0.04195,-0.08159l-9.71757,-17.49993l-7.81599,0.23116l-2.88031,2.1484l0.46141,8.0497l5.60683,3.86168l0.15381,0.10878l0,0.17677l-0.2377,6.9755l0,0.16316l-0.13982,0.09518l-5.49497,3.72571l-0.11186,0.06798l-0.12584,-0.01359l-9.13032,-1.35975l-2.57271,3.54894l2.6566,2.36597l0.05593,0.05439l0.02796,0.08159l4.48826,13.06716l5.29921,0.89743l0.09788,0.01359l0.0699,0.06798l5.01957,4.41918l0.09788,0.09518l0.01399,0.13598l0.4754,6.51319l0.01399,0.25835l-0.2377,0.08159l-7.99776,2.74668l-3.04809,6.85313l-0.04195,0.08159l-0.0699,0.05439l-8.96253,6.64917l0,4.54155l4.15268,2.69229l0.16778,0.10878l-0.01399,0.19037l-0.4754,5.3574l-0.01399,0.09518l-0.0699,0.08159l-4.06879,4.88149l-0.05593,0.06798l-0.08389,0.0272l-5.15939,2.05321l-1.85961,2.93705l-0.08389,0.14957l-0.16778,0.01359l-6.06824,0.44871l-9.47987,12.21053l-0.12584,0.14957l-0.19575,-0.0272l-5.11745,-0.67987l-5.6208,4.55516l-0.09788,0.08159l-0.12584,0l-8.85068,0l1.76175,5.15344l0.0699,0.21755l-0.18177,0.13598l-4.75391,3.73931l5.01957,5.3302l0.29363,0.31274l-0.39149,0.20396l-4.89373,2.48833l-1.49608,5.42538l-0.00006,0.00005l0.00001,-0.00005z" fill="url(#svg_310)"/>
  <path stroke="null" id="svg_305" fill-rule="evenodd" clip-rule="evenodd" d="m579.16679,214.41014l-2.13926,6.21405l8.09564,8.83836l1.13255,-12.70004l-4.39038,-1.93085l-2.69855,-0.42153l0,0.00001z" fill="url(#svg_306)"/>
  <g id="svg_1">
   <path stroke="null" id="svg_307" fill-rule="evenodd" clip-rule="evenodd" d="m646.46269,232.78032l2.85235,2.76029l5.53691,-4.41918l-2.4189,-0.55749l-5.97037,2.21639l0,-0.00002l0.00001,0.00001z" fill="url(#svg_308)"/>
   <path stroke="null" id="svg_303" fill-rule="evenodd" clip-rule="evenodd" d="m632.55048,237.60742l2.12529,3.1818l8.09564,1.23736l3.27182,-1.6453l-1.98546,-3.31778l-5.97037,-0.69347l-5.53691,1.23736l0,0.00002l-0.00001,0.00001z" fill="url(#svg_304)"/>
   <path stroke="null" id="svg_301" d="m632.57846,341.50567l-1.45414,-17.74469l-2.01342,-8.17208l-6.01231,-5.84691l0.5453,-8.70238l3.10402,-2.48833l-10.40269,-11.70741l0.18177,-8.17208l4.37641,-4.60955l-1.0906,-4.62314l-8.76679,-2.47474l-8.94855,-15.44672l2.19519,-1.41414l2.74049,3.72571l4.37641,-2.66511l-6.75336,-6.21405l-3.64932,1.95803l-5.83054,-3.68492l-0.09788,0.10878l-3.00615,-6.89392l-6.02628,0l-0.72707,4.07924l-3.84508,-0.35353l-12.40213,-24.1491l0.72707,-7.62818l4.93568,-1.06061l-3.66331,-14.19576l7.85795,6.02368l0.18177,-17.03763l6.20806,-6.21405l9.2981,-0.17677l-5.28524,-12.59126l-2.53077,-27.15415l-6.02628,1.78127l-0.12584,0.04079l-0.12584,-0.06798l-4.48826,-2.29797l-7.74609,21.64717l-0.08389,0.23116l-0.25169,-0.01359l-9.85739,-0.24475l-9.10235,2.7059l-0.3076,0.09518l-3.07607,-8.22647l-12.27629,0.72067l-2.19519,3.79369l-0.0699,0.13598l-0.15381,0.0272l-8.45917,1.94444l-1.46812,4.26961l-0.0699,0.20396l-0.20973,0.01359l-4.61409,0.47591l-1.45414,4.97667l-0.05593,0.17677l-0.16778,0.05439l-5.3132,1.6317l0.95078,5.08545l7.63423,10.79639l4.73994,0.96542l0.18177,0.04079l0.05593,0.16316l3.24385,8.24006l5.38312,-0.47591l0.13982,-0.01359l0.11186,0.09518l3.59341,3.23619l0.08389,0.08159l0.01399,0.10878l1.00671,5.07185l4.94967,2.7195l3.42561,-3.10023l-9.31209,-10.83719l2.19519,-7.09788l8.93457,-3.01864l-4.73994,6.92111l1.0906,5.3302l7.1169,4.7863l3.28579,0.17677l-0.18177,4.97667l3.10402,0.70708l-2.92226,14.19576l3.28579,5.3302l1.10459,16.50733l2.54474,10.64682l3.46756,10.64682l-4.01286,4.26961l1.27237,4.07924l-2.1812,2.84187l5.64878,6.39081l0.92282,10.11652l16.97429,18.62854l50.36356,32.83788l-0.00008,0l0.00001,0.00003z" fill="url(#svg_302)"/>
  </g>
  <g id="svg_2">
   <path stroke="null" id="svg_335" fill-rule="evenodd" clip-rule="evenodd" d="m622.66513,349.31061l0.44742,2.06681l2.75448,1.72687l1.3283,-3.27699l-1.51007,-2.42035l-3.02013,1.90364l0,0.00002z" fill="url(#svg_336)"/>
   <path stroke="null" id="svg_333" fill-rule="evenodd" clip-rule="evenodd" d="m631.362,345.34016l-0.44742,1.98523l3.02013,1.11499l1.59396,-1.72687l-2.92226,-2.48833l-1.24441,1.11499l0,-0.00002l0,0.00001z" fill="url(#svg_334)"/>
   <path stroke="null" id="svg_331" fill-rule="evenodd" clip-rule="evenodd" d="m629.50239,349.66414l-0.71308,8.18567l3.28579,4.14722l3.02013,-1.37334l-0.62919,-8.11769l-2.39094,-2.16199l-2.57271,-0.67987z" fill="url(#svg_332)"/>
   <path stroke="null" id="svg_329" fill-rule="evenodd" clip-rule="evenodd" d="m634.20037,367.87115l-0.44742,3.01864l1.42618,3.01864l3.90101,-1.72687l0.53131,-1.98523l-5.41108,-2.32517l0,-0.00001z" fill="url(#svg_330)"/>
   <path stroke="null" id="svg_327" fill-rule="evenodd" clip-rule="evenodd" d="m639.21996,391.85709l-1.45414,2.7059l2.1812,3.05943l2.67059,-2.46115l-1.69183,-3.07303l-1.70582,-0.23116l0,0.00001z" fill="url(#svg_328)"/>
   <path stroke="null" id="svg_325" fill-rule="evenodd" clip-rule="evenodd" d="m639.47163,407.05906l1.45414,2.35236l2.05537,-0.70708l0.48937,-3.76649l-2.67059,-0.59828l-1.3283,2.7195l0.00002,0l-0.00001,-0.00001z" fill="url(#svg_326)"/>
   <path stroke="null" id="svg_323" fill-rule="evenodd" clip-rule="evenodd" d="m641.28931,413.17792l-2.1812,2.24358l1.69183,4.47357l5.08949,-1.29177l-1.69183,-4.59594l-2.90829,-0.82944z" fill="url(#svg_324)"/>
   <path stroke="null" id="svg_321" fill-rule="evenodd" clip-rule="evenodd" d="m637.89166,431.79285l-2.54474,2.47474l0.12584,5.19424l0.11186,5.41179l0.12584,2.47474l2.67059,0l2.1812,-6.13246l-0.48937,-5.99648l-2.1812,-3.42656l-0.00002,-0.00002l0,0.00001z" fill="url(#svg_322)"/>
   <path stroke="null" id="svg_319" fill-rule="evenodd" clip-rule="evenodd" d="m630.25741,452.06668l2.67059,0.12238l0.83893,3.41296l-1.92953,2.93705l-2.54474,3.53535l-0.25169,3.88888l-0.72707,4.8271l-0.4754,3.65772l-1.21644,-0.58469l-0.96477,-6.36362l-0.2377,-7.90012l3.27182,-3.29059l1.81767,-1.53652l-0.25169,-2.7059l0,0.00002l0.00002,-0.00002z" fill="url(#svg_320)"/>
   <path stroke="null" id="svg_317" fill-rule="evenodd" clip-rule="evenodd" d="m620.65171,494.21882l1.31431,-0.55749l0.51734,-9.20548l1.6359,-1.84926l0.3076,-2.40675l-1.73378,-1.06061l-2.67059,1.22377l-1.46812,1.12859l1.31431,4.03845l-0.4754,5.22142l1.2584,3.46735l0.00002,0l0.00001,0.00001z" fill="url(#svg_318)"/>
   <path stroke="null" id="svg_315" fill-rule="evenodd" clip-rule="evenodd" d="m630.62095,484.95895l0.89485,1.99883l2.67059,-0.92463l-0.57326,-2.76029l-1.46812,-1.99883l-1.46812,1.38693l-0.05593,2.29797l0,0.00002l-0.00001,0z" fill="url(#svg_316)"/>
   <path stroke="null" id="svg_313" fill-rule="evenodd" clip-rule="evenodd" d="m512.93355,417.89624l-0.25169,-0.59828l10.76622,5.68375l3.46756,8.86555l5.28524,6.56758l6.38983,9.93975l4.55817,7.27464l5.29921,3.90247l1.6359,4.62314l1.46812,4.07924l6.5716,3.01864l0.90883,6.39081l6.75336,8.33524l0.5453,-7.27464l-0.90883,-5.50697l5.28524,-0.35353l2.01342,-0.88383l4.92171,2.48833l-4.01286,-8.17208l-5.84451,0l-6.19408,-2.6515l-7.1169,-4.97667l-4.57215,-11.35388l-2.55872,-7.28825l5.48098,-3.00504l10.22092,-0.5303l-23.00057,-15.09319l-16.23323,-14.19576l-7.4944,-13.66546l-10.22092,-6.92111l-4.73994,-5.8605l-3.28579,1.41414l-0.72707,3.37217l6.02628,4.07924l3.28579,4.79991l-1.83166,2.31156l-2.92226,-0.72067l-0.90883,4.09284l5.84451,4.256l5.84451,12.95838l-0.48937,-0.19037l0.74105,0.78865l-0.00002,0.00002l0.00005,-0.00002z" fill="url(#svg_314)"/>
  </g>
  <g id="svg_3">
   <path stroke="null" id="svg_369" fill-rule="evenodd" clip-rule="evenodd" d="m424.14715,128.80048l-0.92282,2.54272l2.30705,1.49573l2.61466,-1.49573l-0.92282,-3.14102l-3.07607,0.59828l0,0.00002z" fill="url(#svg_370)"/>
   <path stroke="null" id="svg_367" fill-rule="evenodd" clip-rule="evenodd" d="m204.44626,196.62465l4.20861,3.2498l1.92953,-2.96425l0.64318,-2.46115l-2.33501,-1.41414l-2.81041,-0.40792l-1.6359,3.99765l0,0.00001z" fill="url(#svg_368)"/>
   <path stroke="null" id="svg_365" fill-rule="evenodd" clip-rule="evenodd" d="m299.91611,163.89554l7.06097,0.89743l0.3076,3.44016l-2.76846,0.74786l-3.21589,-1.94444l-1.38423,-3.14102l0.00002,0.00002l-0.00001,-0.00001z" fill="url(#svg_366)"/>
   <path stroke="null" id="svg_363" fill-rule="evenodd" clip-rule="evenodd" d="m318.49832,152.54166l1.23042,5.53417l2.90829,0l0.61522,-4.93587l-2.92226,-2.37956l-1.83166,1.78127l-0.00002,-0.00002l0.00001,0.00001z" fill="url(#svg_364)"/>
   <path stroke="null" id="svg_361" fill-rule="evenodd" clip-rule="evenodd" d="m324.94409,157.17839l0,6.26844l7.21478,-1.49573l6.75336,-3.42656l-2.29307,-5.08545l-4.4603,-0.59828l-3.38367,-0.74786l-2.44688,3.58974l-1.38423,1.49573l0,-0.00003l0.00001,0z" fill="url(#svg_362)"/>
   <path stroke="null" id="svg_359" fill-rule="evenodd" clip-rule="evenodd" d="m327.25112,122.23291l2.15324,4.47357l13.81433,0.14957l3.99889,-7.16586l-2.61466,-5.52057l-2.92226,3.12741l-5.67673,-0.44871l-1.53803,2.54272l-3.07607,0l-0.46141,2.99144l-3.6773,-0.14957l-0.00002,0l0.00002,0z" fill="url(#svg_360)"/>
   <path stroke="null" id="svg_357" fill-rule="evenodd" clip-rule="evenodd" d="m321.86802,99.82428l-0.92282,3.29059l2.76846,0.59828l1.07663,-2.84187l-2.92226,-1.04701l-0.00002,0l0.00001,0.00001z" fill="url(#svg_358)"/>
   <path stroke="null" id="svg_355" fill-rule="evenodd" clip-rule="evenodd" d="m314.49945,128.80048l3.22987,4.77271l5.98434,1.19658l0.15381,-6.71715l-1.99944,-3.29059l-7.06097,-0.43512l-3.69127,2.52913l-5.67673,-0.89743l-0.46141,3.73931l3.38367,3.44016l-1.84564,2.08042l-5.36913,-4.324l-6.45973,0.59828l-0.46141,5.07185l0.61522,5.23503l2.92226,3.57613l1.07663,4.03845l5.98434,1.6453l5.52293,-0.44871l-0.44742,-5.68375l3.9849,0.44871l3.07607,-4.92228l3.6773,0.74786l2.46085,-2.69229l-2.46085,-2.39315l-5.36913,-1.49573l-4.2925,-4.92228l3.52349,-0.89743l-0.00002,-0.00002l-0.00003,0.00001z" fill="url(#svg_356)"/>
   <path stroke="null" id="svg_353" fill-rule="evenodd" clip-rule="evenodd" d="m287.47202,141.35094l0.92282,4.02486l3.6773,4.18802l2.30705,-0.89743l-2.76846,-4.93587l-4.13871,-2.37956l0,-0.00002z" fill="url(#svg_354)"/>
   <path stroke="null" id="svg_351" fill-rule="evenodd" clip-rule="evenodd" d="m446.82613,132.45821l-1.85961,3.50815l-10.03916,5.50697l-7.29867,-6.74435l-7.29867,-0.70708l-10.41668,6.56758l-7.10291,8.51202l-2.55872,8.70238l-4.75391,1.41414l-5.83054,-2.82827l-5.66275,0.5303l-2.92226,3.72571l-2.55872,-2.1348l-2.36297,2.48833l-2.92226,-2.66511l4.19463,-4.07924l-9.85739,-0.70708l-5.64878,4.7863l3.09005,10.29328l-5.64878,5.3302l0,-7.98171l-3.83109,0l-3.83109,3.35857l-0.92282,-4.07924l5.66275,-4.96308l-6.02628,0.35353l-17.88312,8.87914l3.46756,4.07924l-5.10348,4.7863l1.99944,3.54894l3.64932,-1.76767l0.36353,5.13985l4.39038,4.97667l-6.76734,1.59091l-1.99944,2.66511l1.83166,4.256l-5.48098,0.89743l-7.29867,-2.1348l-2.19519,7.98171l-12.41611,-2.12121l0,17.74469l-8.7528,-1.41414l-13.50671,-11.89778l4.92171,-3.37217l-8.2075,-11.89778l-5.28524,-2.47474l-8.03972,2.6515l-8.93457,-3.37217l-1.28636,13.50228l-16.23323,6.74435l-6.20806,-4.09284l0.90883,-3.19541l-16.61075,-0.17677l-4.37641,5.68375l-1.0906,3.72571l-1.10459,-5.49338l-3.10402,-2.66511l-3.64932,3.72571l-5.06153,2.46115l-0.27964,3.37217l2.36297,3.07303l0.05593,0.05439l0.01399,0.08159l1.07663,5.46618l7.81599,10.7556l0.0699,0.09518l0,7.09788l3.9849,4.66393l0.22371,0.25835l-0.26566,0.20396l-9.11633,7.04349l-0.53131,4.07924l-0.01399,0.08159l-0.04195,0.06798l-2.13926,3.11382l-1.60794,7.58739l-0.0699,0.29914l-0.29363,-0.04079l-4.47427,-0.51671l-7.21478,5.72454l-0.02796,0.01359l-0.02796,0.01359l-2.43289,1.22377l5.73267,8.49842l0.04195,0.08159l0.01399,0.08159l1.94352,23.76837l0,0.14957l-0.09788,0.09518l-5.01957,5.41179l3.31376,2.48833l0.16778,0.12238l-0.04195,0.20396l-1.35626,6.32282l2.93624,3.11382l0.09788,0.09518l0,4.55516l3.46756,2.32517l0.20973,0.14957l-0.08389,0.24475l-1.67785,4.3104l-0.01399,0.06798l-0.04195,0.04079l-5.21532,6.13246l-0.50336,4.39198l8.62697,0l0.09788,0.08159l3.69127,2.81468l4.2226,-2.73309l0.19575,0.24475l2.22315,2.69229l0.18177,0.21755l-0.01399,0.0272l2.90829,4.2832l0.19575,0.27196l-0.29363,0.19037l-3.29978,2.03962l0,3.79369l3.64932,0.27196l3.04809,-2.06681l0.3076,-0.21755l0.18177,0.32634l3.77518,7.04349l0.04195,0.06798l0,0.09518l-0.3076,8.36245l5.0755,2.77388l-0.05593,0.24475l-2.1812,8.75677l2.72652,5.87411l6.13815,1.79487l0.36353,0.10878l-0.15381,0.33994l-4.69798,10.64682l-0.92282,13.25753l4.71197,4.88149l5.10348,-3.79369l0.08389,-0.06798l0.11186,0l7.67617,-0.29914l2.72652,-4.73192l0.22371,-0.38073l0.32159,0.29914l4.13871,4.03845l5.39709,-6.11887l8.47316,-17.70391l0.0699,-0.14957l0.18177,-0.0272l5.66275,-0.92463l0.08389,-0.01359l0.09788,0.04079l11.14374,4.33759l0.05593,0.13598l2.39094,7.0027l6.58557,-2.90986l0.16778,-0.08159l0.15381,0.10878l4.09676,2.74668l0.0699,0.05439l0.04195,0.09518l7.41051,16.33055l9.61969,17.35036l6.05426,-3.86168l0.02796,-0.01359l0.04195,-0.01359l6.29195,-2.44754l0.18177,-0.06798l0.15381,0.12238l4.80984,3.79369l2.60067,-2.25717l0.2377,-0.20396l0.22371,0.20396l3.85907,3.45376l3.53748,-3.44016l0.09788,-0.10878l0.15381,0.01359l8.80873,0.29914l0.11186,0.01359l0.08389,0.05439l5.50895,4.17443l10.82215,-3.91606l0.19575,-0.06798l0.13982,0.12238l3.62137,2.93705l14.89095,-6.64917l0.11186,-0.04079l0.09788,0.01359l4.30649,0.89743l4.68401,-1.69968l-0.58725,-3.39937l-0.04195,-0.24475l0.22371,-0.10878l11.52126,-5.83332l-2.88031,-7.90012l-0.0699,-0.19037l0.13982,-0.14957l3.87304,-4.02486l-1.59396,-3.90247l-7.38256,-4.69112l-0.25169,-0.16316l0.13982,-0.25835l3.88702,-7.28825l-7.22875,-4.8543l-0.3076,-0.21755l0.25169,-0.27196l3.35571,-3.82088l0,-16.28977l0.22371,-0.08159l14.14989,-5.23503l0.55929,-6.21405l0.02796,-0.28555l0.29363,-0.01359l8.38927,-0.5439l1.90157,-5.04467l-0.27964,-5.23503l-0.01399,-0.21755l4.25056,-1.93085l-3.04809,-10.49725l-5.63479,-3.84808l-0.19575,-0.13598l0.0699,-0.21755l3.69127,-12.74083l-5.11745,-13.29832l-0.0699,-0.17677l0.11186,-0.14957l2.86633,-3.63053l0.15381,-0.17677l0.22371,0.06798l9.96924,3.31778l6.34787,-1.33255l2.22315,-3.79369l0.08389,-0.13598l0.16778,-0.0272l7.53636,-1.0742l1.34229,-4.70473l-12.54195,-25.29128l-0.04195,-0.09518l0.01399,-0.10878l1.27237,-6.18685l0.02796,-0.12238l0.11186,-0.08159l8.40325,-5.76532l-3.15996,-5.9285l-0.12584,-0.21755l0.19575,-0.17677l8.13758,-7.41062l0.08389,-0.08159l0.11186,-0.01359l7.24273,-0.72067l4.15268,-4.52796l0.74105,-7.88653l-4.69798,-4.09284l-0.11186,-0.09518l-0.01399,-0.13598l-0.2377,-5.09905l-3.00615,-4.37839l-0.15381,-0.23116l3.78915,-3.44016l-3.85907,-4.45998l-0.22371,-0.24475l0.25169,-0.20396l9.39598,-8.40324l0.05593,-0.04079l0.05593,-0.0272l4.2226,-1.69968l3.14597,-4.45998l-5.92842,-11.99296l-7.48043,0l-0.0699,-0.0272l-5.84451,-2.47474l-0.13982,-0.05439l-0.04195,-0.13598l-3.06208,-7.66898l-0.0699,-0.17677l0.13982,-0.14957l11.85682,-13.51589l0,-6.63556l-15.52014,-11.3267l-0.00008,0.00011l0.00005,0.00005z" fill="url(#svg_352)"/>
  </g>
 </g>
</svg>