<svg width="800" height="600" xmlns="http://www.w3.org/2000/svg">
 <title>Drawing</title>
 <defs>
  <linearGradient y2="66.79157" x2="-18.7984" y1="-6.12021" x1="-18.7984" id="svg_148">
   <stop stop-color="#FEF2CF"/>
   <stop stop-color="#FBCC82" offset="1"/>
  </linearGradient>
  <linearGradient y2="33.84243" x2="18.61851" y1="-12.80489" x1="18.61851" id="svg_147">
   <stop stop-color="#FEF2CF"/>
   <stop stop-color="#FBCC82" offset="1"/>
  </linearGradient>
  <linearGradient y2="53.87978" x2="4.17835" y1="-12.59896" x1="4.17835" id="svg_146">
   <stop stop-color="#FEF2CF"/>
   <stop stop-color="#FBCC82" offset="1"/>
  </linearGradient>
  <linearGradient y2="39.25099" x2="2.56765" y1="-6.96284" x1="2.56765" id="svg_145">
   <stop stop-color="#FEF2CF"/>
   <stop stop-color="#FBCC82" offset="1"/>
  </linearGradient>
  <linearGradient y2="25.17251" x2="0.41241" y1="-4.60361" x1="0.41241" id="svg_144">
   <stop stop-color="#FEF2CF"/>
   <stop stop-color="#FBCC82" offset="1"/>
  </linearGradient>
  <linearGradient y2="25.51768" x2="0.17297" y1="-1.13076" x1="0.17297" id="svg_143">
   <stop stop-color="#FEF2CF"/>
   <stop stop-color="#FBCC82" offset="1"/>
  </linearGradient>
  <linearGradient y2="86.93352" x2="2.53817" y1="0" x1="2.53817" id="svg_142">
   <stop stop-color="#FEF2CF"/>
   <stop stop-color="#FBCC82" offset="1"/>
  </linearGradient>
  <linearGradient y2="11.7299" x2="1.23066" y1="-0.91658" x1="1.23066" id="svg_141">
   <stop stop-color="#FEF2CF"/>
   <stop stop-color="#FBCC82" offset="1"/>
  </linearGradient>
  <linearGradient y2="36.10758" x2="6.25911" y1="-5.05629" x1="6.25911" id="svg_140">
   <stop stop-color="#FEF2CF"/>
   <stop stop-color="#FBCC82" offset="1"/>
  </linearGradient>
  <linearGradient y2="1" x2="0.5" y1="-0.10684" x1="0.5" id="svg_139">
   <stop stop-color="#FEF2CF"/>
   <stop stop-color="#FBCC82" offset="1"/>
  </linearGradient>
  <linearGradient y2="7.41465" x2="3.80958" y1="-0.71681" x1="3.80958" id="svg_138">
   <stop stop-color="#FBC87B"/>
   <stop stop-color="#F7A22D" offset="1"/>
  </linearGradient>
  <linearGradient y2="1" x2="0.5" y1="0" x1="0.5" id="svg_137">
   <stop stop-color="#FBC87B"/>
   <stop stop-color="#F7A22D" offset="1"/>
  </linearGradient>
  <linearGradient y2="1" x2="0.5" y1="0" x1="0.5" id="svg_136">
   <stop stop-color="#A76001"/>
   <stop stop-color="#7A4602" offset="1"/>
  </linearGradient>
  <linearGradient y2="1" x2="0.5" y1="0" x1="0.5" id="svg_135">
   <stop stop-color="#FEF2CF"/>
   <stop stop-color="#FBCC82" offset="1"/>
  </linearGradient>
  <linearGradient y2="1" x2="0.5" y1="0" x1="0.5" id="svg_134">
   <stop stop-color="#FBC87B"/>
   <stop stop-color="#F7A22D" offset="1"/>
  </linearGradient>
  <linearGradient y2="1" x2="0.5" y1="0" x1="0.5" id="svg_133">
   <stop stop-color="#F79F26"/>
   <stop stop-color="#DD7F01" offset="1"/>
  </linearGradient>
  <linearGradient y2="1" x2="0.5" y1="0" x1="0.5" id="svg_132">
   <stop stop-color="#F79F26"/>
   <stop stop-color="#DD7F01" offset="1"/>
  </linearGradient>
  <linearGradient y2="25.76833" x2="-11.26845" y1="-0.55847" x1="-11.26845" id="svg_131">
   <stop stop-color="#DA7D01"/>
   <stop stop-color="#AC6201" offset="1"/>
  </linearGradient>
  <linearGradient y2="35.58421" x2="-12.85155" y1="-0.00002" x1="-12.85155" id="svg_130">
   <stop stop-color="#DA7D01"/>
   <stop stop-color="#AC6201" offset="1"/>
  </linearGradient>
  <linearGradient y2="11.72105" x2="-9.0665" y1="-0.44102" x1="-9.0665" id="svg_129">
   <stop stop-color="#DA7D01"/>
   <stop stop-color="#AC6201" offset="1"/>
  </linearGradient>
  <linearGradient y2="20.92796" x2="-10.60628" y1="-3.91668" x1="-10.60628" id="svg_128">
   <stop stop-color="#DA7D01"/>
   <stop stop-color="#AC6201" offset="1"/>
  </linearGradient>
  <linearGradient y2="17.75469" x2="-13.63389" y1="-8.26178" x1="-13.63389" id="svg_127">
   <stop stop-color="#DA7D01"/>
   <stop stop-color="#AC6201" offset="1"/>
  </linearGradient>
  <linearGradient y2="17.72111" x2="-16.96887" y1="-11.8525" x1="-16.96887" id="svg_126">
   <stop stop-color="#DA7D01"/>
   <stop stop-color="#AC6201" offset="1"/>
  </linearGradient>
  <linearGradient y2="12.0648" x2="-9.95256" y1="-10.26521" x1="-9.95256" id="svg_125">
   <stop stop-color="#DA7D01"/>
   <stop stop-color="#AC6201" offset="1"/>
  </linearGradient>
  <linearGradient y2="4.01311" x2="-12.21976" y1="-5.62937" x1="-12.21976" id="svg_124">
   <stop stop-color="#DA7D01"/>
   <stop stop-color="#AC6201" offset="1"/>
  </linearGradient>
  <linearGradient y2="1.88335" x2="-6.44556" y1="-4.81834" x1="-6.44556" id="svg_123">
   <stop stop-color="#DA7D01"/>
   <stop stop-color="#AC6201" offset="1"/>
  </linearGradient>
  <linearGradient y2="1" x2="-7.99287" y1="-8.94682" x1="-7.99287" id="svg_122">
   <stop stop-color="#DA7D01"/>
   <stop stop-color="#AC6201" offset="1"/>
  </linearGradient>
  <linearGradient y2="2.27751" x2="-16.54905" y1="-24.11246" x1="-16.54905" id="svg_121">
   <stop stop-color="#DA7D01"/>
   <stop stop-color="#AC6201" offset="1"/>
  </linearGradient>
  <linearGradient y2="1.07829" x2="0.92495" y1="-0.3469" x1="0.92495" id="svg_120">
   <stop stop-color="#DA7D01"/>
   <stop stop-color="#AC6201" offset="1"/>
  </linearGradient>
  <linearGradient y2="1" x2="0.5" y1="0" x1="0.5" id="svg_37">
   <stop stop-color="#FEF2CF"/>
   <stop stop-color="#FBCC82" offset="1"/>
  </linearGradient>
  <linearGradient y2="1" x2="0.5" y1="0" x1="0.5" id="svg_27">
   <stop stop-color="#A76001"/>
   <stop stop-color="#7A4602" offset="1"/>
  </linearGradient>
  <linearGradient y2="22.29239" x2="-7.68669" y1="-19.1148" x1="-7.68669" id="svg_6">
   <stop stop-color="#F79F26"/>
   <stop stop-color="#DD7F01" offset="1"/>
  </linearGradient>
  <linearGradient y2="8.44353" x2="0.53637" y1="-5.24661" x1="0.53637" id="svg_5">
   <stop stop-color="#F79F26"/>
   <stop stop-color="#DD7F01" offset="1"/>
  </linearGradient>
  <linearGradient y2="18.58652" x2="-3.74819" y1="-17.84372" x1="-3.74819" id="svg_4">
   <stop stop-color="#F79F26"/>
   <stop stop-color="#DD7F01" offset="1"/>
  </linearGradient>
  <linearGradient y2="1" x2="0.59019" y1="0" x1="0.59019" id="svg_3">
   <stop stop-color="#F79F26"/>
   <stop stop-color="#DD7F01" offset="1"/>
  </linearGradient>
 </defs>
 <g id="Layer_1">
  <title>Layer 1</title>
  <path stroke="null" fill="url(#svg_148)" d="m405.0859,180.94059l-0.59512,1.64425l1.4878,0.96721l1.68617,-0.96721l-0.59512,-2.03114l-1.98373,0.38688l0,0.00001z" clip-rule="evenodd" fill-rule="evenodd" id="svg_152"/>
  <path stroke="null" fill="url(#svg_147)" d="m263.40258,224.79904l2.7141,2.10148l1.24434,-1.91683l0.41478,-1.5915l-1.50583,-0.91445l-1.81241,-0.26378l-1.05498,2.58508z" clip-rule="evenodd" fill-rule="evenodd" id="svg_153"/>
  <path stroke="null" fill="url(#svg_146)" d="m324.97031,203.63479l4.55356,0.58032l0.19837,2.22458l-1.78536,0.4836l-2.0739,-1.25737l-0.89268,-2.03114l0.00001,0.00001z" clip-rule="evenodd" fill-rule="evenodd" id="svg_154"/>
  <path stroke="null" fill="url(#svg_145)" d="m336.95383,196.29281l0.79349,3.57867l1.87553,0l0.39675,-3.19178l-1.88454,-1.53874l-1.18122,1.15186l-0.00001,-0.00001z" clip-rule="evenodd" fill-rule="evenodd" id="svg_155"/>
  <path stroke="null" fill="url(#svg_144)" d="m341.11065,199.29115l0,4.05348l4.65275,-0.96721l4.35519,-2.21578l-1.47878,-3.2885l-2.87641,-0.38688l-2.1821,-0.4836l-1.57797,2.3213l-0.89268,0.96721l0,-0.00002z" clip-rule="evenodd" fill-rule="evenodd" id="svg_156"/>
  <path stroke="null" fill="url(#svg_143)" d="m342.59844,176.69368l1.38861,2.89283l8.90875,0.09672l2.57885,-4.6338l-1.68617,-3.56987l-1.88454,2.02234l-3.66088,-0.29016l-0.99186,1.64425l-1.98373,0l-0.29756,1.93441l-2.37146,-0.09672l-0.00001,0z" clip-rule="evenodd" fill-rule="evenodd" id="svg_157"/>
  <path stroke="null" fill="url(#svg_142)" d="m339.12692,162.20315l-0.59512,2.12786l1.78536,0.38688l0.69431,-1.83769l-1.88454,-0.67705l-0.00001,0z" clip-rule="evenodd" fill-rule="evenodd" id="svg_158"/>
  <path stroke="null" fill="url(#svg_141)" d="m334.37499,180.94059l2.08292,3.08627l3.85925,0.77377l0.09919,-4.34364l-1.28942,-2.12786l-4.55356,-0.28137l-2.38047,1.63546l-3.66088,-0.58032l-0.29756,2.41802l2.1821,2.22458l-1.19024,1.3453l-3.46251,-2.79611l-4.16583,0.38688l-0.29756,3.27971l0.39675,3.38523l1.88454,2.3125l0.69431,2.61146l3.85925,1.06393l3.56169,-0.29016l-0.28854,-3.67539l2.56983,0.29016l1.98373,-3.18299l2.37146,0.4836l1.58698,-1.74097l-1.58698,-1.54753l-3.46251,-0.96721l-2.7682,-3.18299l2.27227,-0.58032l-0.00001,-0.00001z" clip-rule="evenodd" fill-rule="evenodd" id="svg_159"/>
  <path stroke="null" fill="url(#svg_140)" d="m316.94522,189.05634l0.59512,2.60267l2.37146,2.70818l1.4878,-0.58032l-1.78536,-3.19178l-2.66902,-1.53874l0,-0.00001z" clip-rule="evenodd" fill-rule="evenodd" id="svg_160"/>
  <path stroke="null" fill="url(#svg_139)" d="m419.71139,183.30586l-1.19925,2.26854l-6.47417,3.56108l-4.70685,-4.36123l-4.70685,-0.45723l-6.71763,4.24692l-4.58061,5.50429l-1.6501,5.62739l-3.06576,0.91445l-3.76007,-1.8289l-3.65186,0.34292l-1.88454,2.40923l-1.6501,-1.38047l-1.52386,1.60908l-1.88454,-1.72339l2.70508,-2.63784l-6.35695,-0.45723l-3.64285,3.09506l1.99275,6.65614l-3.64285,3.44677l0,-5.16137l-2.47064,0l-2.47064,2.17182l-0.59512,-2.63784l3.65186,-3.20937l-3.8863,0.22861l-11.53268,5.74169l2.2362,2.63784l-3.29119,3.09506l1.28942,2.29492l2.35342,-1.14306l0.23444,3.32368l2.83132,3.21816l-4.3642,1.02876l-1.28942,1.72339l1.18122,2.75214l-3.53464,0.58032l-4.70685,-1.38047l-1.41566,5.16137l-8.00705,-1.37168l0,11.47459l-5.64461,-0.91445l-8.71037,-7.69369l3.17397,-2.18061l-5.29295,-7.69369l-3.40841,-1.60029l-5.18475,1.71459l-5.76183,-2.18061l-0.82956,8.73124l-10.46868,4.36123l-4.00353,-2.64663l0.5861,-2.06631l-10.71214,-0.11431l-2.82231,3.67539l-0.70332,2.40923l-0.71234,-3.55229l-2.00176,-1.72339l-2.35342,2.40923l-3.26414,1.5915l-0.18034,2.18061l1.52386,1.98717l0.03607,0.03517l0.00902,0.05276l0.69431,3.5347l5.04047,6.9551l0.04508,0.06155l0,4.58984l2.56983,3.01593l0.14427,0.16706l-0.17132,0.13189l-5.87905,4.55467l-0.34264,2.63784l-0.00902,0.05276l-0.02705,0.04396l-1.37959,2.01355l-1.03695,4.90638l-0.04508,0.19344l-0.18936,-0.02638l-2.88542,-0.33413l-4.65275,3.70177l-0.01803,0.00879l-0.01803,0.00879l-1.56895,0.79135l3.69695,5.4955l0.02705,0.05276l0.00902,0.05276l1.25336,15.3698l0,0.09672l-0.06312,0.06155l-3.23708,3.49953l2.13702,1.60908l0.1082,0.07914l-0.02705,0.13189l-0.87464,4.08865l1.89356,2.01355l0.06312,0.06155l0,2.94559l2.2362,1.50357l0.13525,0.09672l-0.0541,0.15827l-1.08203,2.78732l-0.00902,0.04396l-0.02705,0.02638l-3.36332,3.96555l-0.32461,2.84007l5.56346,0l0.06312,0.05276l2.38047,1.82011l2.72312,-1.76735l0.12624,0.15827l1.43369,1.74097l0.11722,0.14068l-0.00902,0.01759l1.87553,2.76973l0.12624,0.17586l-0.18936,0.1231l-2.128,1.31892l0,2.45319l2.35342,0.17586l1.96569,-1.3365l0.19837,-0.14068l0.11722,0.21103l2.43458,4.55467l0.02705,0.04396l0,0.06155l-0.19837,5.40757l3.27315,1.79373l-0.03607,0.15827l-1.40664,5.66256l1.75831,3.79849l3.95844,1.16065l0.23444,0.07034l-0.09919,0.21982l-3.02969,6.88476l-0.59512,8.57297l3.03871,3.15661l3.29119,-2.45319l0.0541,-0.04396l0.07214,0l4.9503,-0.19344l1.75831,-3.05989l0.14427,-0.2462l0.20739,0.19344l2.66902,2.61146l3.48054,-3.95676l5.46427,-11.44822l0.04508,-0.09672l0.11722,-0.01759l3.65186,-0.59791l0.0541,-0.00879l0.06312,0.02638l7.18651,2.8049l0.03607,0.08793l1.5419,4.52829l4.24698,-1.88166l0.1082,-0.05276l0.09919,0.07034l2.64197,1.77614l0.04508,0.03517l0.02705,0.06155l4.77898,10.56014l6.20366,11.2196l3.90434,-2.49715l0.01803,-0.00879l0.02705,-0.00879l4.05763,-1.5827l0.11722,-0.04396l0.09919,0.07914l3.10183,2.45319l1.67715,-1.4596l0.15329,-0.13189l0.14427,0.13189l2.48868,2.23337l2.28129,-2.22458l0.06312,-0.07034l0.09919,0.00879l5.68068,0.19344l0.07214,0.00879l0.0541,0.03517l3.55268,2.69939l6.97912,-2.53232l0.12624,-0.04396l0.09017,0.07914l2.33539,1.89924l9.60305,-4.29968l0.07214,-0.02638l0.06312,0.00879l2.77722,0.58032l3.02068,-1.0991l-0.37871,-2.1982l-0.02705,-0.15827l0.14427,-0.07034l7.42997,-3.77211l-1.85749,-5.10861l-0.04508,-0.1231l0.09017,-0.09672l2.49769,-2.60267l-1.02793,-2.52353l-4.76095,-3.03351l-0.16231,-0.10551l0.09017,-0.16706l2.50671,-4.71294l-4.66176,-3.13903l-0.19837,-0.14068l0.16231,-0.17586l2.16407,-2.47077l0,-10.53377l0.14427,-0.05276l9.12515,-3.38523l0.36068,-4.01831l0.01803,-0.18465l0.18936,-0.00879l5.41017,-0.35171l1.22631,-3.26213l-0.18034,-3.38523l-0.00902,-0.14068l2.74115,-1.24858l-1.96569,-6.78804l-3.63383,-2.48836l-0.12624,-0.08793l0.04508,-0.14068l2.38047,-8.23885l-3.3002,-8.59935l-0.04508,-0.11431l0.07214,-0.09672l1.84847,-2.34768l0.09919,-0.11431l0.14427,0.04396l6.42908,2.14544l4.09369,-0.86169l1.43369,-2.45319l0.0541,-0.08793l0.1082,-0.01759l4.86014,-0.69463l0.86563,-3.04231l-8.0882,-16.35459l-0.02705,-0.06155l0.00902,-0.07034l0.82054,-4.00072l0.01803,-0.07914l0.07214,-0.05276l5.41919,-3.72814l-2.03783,-3.83366l-0.08115,-0.14068l0.12624,-0.11431l5.24786,-4.79207l0.0541,-0.05276l0.07214,-0.00879l4.67078,-0.46602l2.67803,-2.928l0.4779,-5.09982l-3.02969,-2.64663l-0.07214,-0.06155l-0.00902,-0.08793l-0.15329,-3.2973l-1.93864,-2.83128l-0.09919,-0.14948l2.44359,-2.22458l-2.48868,-2.88404l-0.14427,-0.15827l0.16231,-0.13189l6.05939,-5.43395l0.03607,-0.02638l0.03607,-0.01759l2.72312,-1.0991l2.02881,-2.88404l-3.82319,-7.75524l-4.82407,0l-0.04508,-0.01759l-3.76908,-1.60029l-0.09017,-0.03517l-0.02705,-0.08793l-1.97471,-4.95914l-0.04508,-0.11431l0.09017,-0.09672l7.64637,-8.74004l0,-4.29088l-10.00881,-7.3244l-0.00005,0.00007z" clip-rule="evenodd" fill-rule="evenodd" id="svg_161"/>
  <path stroke="null" fill="url(#svg_138)" d="m431.58671,126.11753l5.07654,5.87359l1.10908,-1.09031l1.38861,-6.76166l1.65912,-3.15661l-1.84847,-2.4356l-4.61668,0.3605l-2.7682,4.05348l0,3.15661z" clip-rule="evenodd" fill-rule="evenodd" id="svg_162"/>
  <path stroke="null" fill="url(#svg_137)" d="m509.93498,185.15234l-1.15417,-12.42422l-3.52563,-1.952l8.35871,-5.62739l-1.18122,-3.78969l-15.5362,-1.25737l-1.88454,2.40923l-4.23797,0.34292l-0.46888,3.20937l-3.40841,-0.22861l0,-4.47553l3.87729,-1.25737l1.53288,-3.10386l-0.82054,-8.14213l-1.53288,-0.58032l-1.88454,1.15186l-0.11722,-2.98955l-3.65186,1.38047l-2.47064,-2.75214l0.94678,-4.47553l3.05675,2.63784l1.76732,-1.38047l2.58786,2.76094l1.53288,-3.44677l-0.35166,-4.13261l2.82231,-2.29492l4.94129,0.45723l8.24149,-6.08461l-2.00176,-2.29492l4.12075,0.58032l-0.11722,-3.904l-4.47241,0.80014l-1.29844,-2.75214l-6.00529,-1.15186l2.36244,-2.86645l-3.06576,-2.18061l2.82231,-1.952l-3.52563,-4.47553l-10.00881,5.74169l-0.5861,4.70414l-2.70508,3.43798l6.70861,2.64663l-3.65186,1.60029l-10.82936,-2.86645l-12.58766,8.15092l-18.83641,9.97982l-5.05851,8.03661l0.46888,2.40923l-3.41742,0.92324l-4.82407,4.24692l3.41742,4.13261l3.05675,-0.92324l4.58963,2.52353l-0.46888,4.47553l-4.23797,0.46602l-2.82231,1.60029l-6.00529,-3.66659l0,7.45629l-6.12251,4.47553l-2.36244,4.46674l10.1621,7.42991l0.09017,0.06155l0,4.66018l-0.0541,0.06155l-7.61932,8.69607l1.88454,4.7569l3.64285,1.54753l5.01342,0l0.06312,0.1231l1.92061,3.89521l3.16495,0.45723l0.09919,0.01759l0.0541,0.09672l2.02881,3.49953l4.24698,-1.99596l0.08115,-0.03517l0.08115,0.02638l3.97647,1.23978l3.02969,-2.62904l0.0541,-0.05276l0.07214,-0.00879l4.67078,-0.30775l3.47153,-3.5435l-0.63119,-3.4116l-0.03607,-0.18465l0.18034,-0.05276l3.49858,-1.09031l0.94678,-3.24454l0.04508,-0.14068l0.14427,-0.01759l2.97559,-0.29895l0.93776,-2.75214l0.04508,-0.11431l0.11722,-0.02638l5.4823,-1.25737l1.42468,-2.47077l0.06312,-0.10551l0.11722,-0.00879l8.19641,-0.47481l0.16231,-0.00879l0.0541,0.14948l1.90258,5.08223l5.69871,-1.69701l0.03607,-0.00879l0.03607,0l6.23973,0.14948l5.03146,-14.07726l0.08115,-0.23741l0.22542,0.11431l3.03871,1.55632l3.87729,-1.14306l0,-0.00005z" clip-rule="evenodd" fill-rule="evenodd" id="svg_163"/>
  <path stroke="null" fill="url(#svg_136)" d="m444.67031,296.52185l3.14692,-2.02234l2.11898,-1.72339l2.93953,-0.68584l-0.93776,-5.856l5.17573,-1.60908l4.00353,-3.43798l3.65186,-0.11431l-2.7141,3.7809l2.59688,2.18941l3.76007,-4.13261l0.94678,-6.54184l3.40841,-1.26616l2.70508,-3.44677l-2.82231,-2.06631l-2.47064,2.98955l-2.58786,-2.40923l-0.70332,-11.82631l-2.2362,-6.99906l0.70332,-5.17016l4.35519,-6.07582l2.47064,-0.11431l1.18122,-3.44677l5.05851,6.77045l3.52563,-0.57153l0.24346,-2.52353l-0.82956,-5.17016l-0.89268,-3.63142l-3.39939,-1.87286l-0.09017,-0.04396l-0.01803,-0.10551l-0.64922,-3.30609l-2.19112,-1.98717l-3.53464,0.31654l-0.16231,0.00879l-0.06312,-0.14948l-2.10095,-5.3636l-3.02068,-0.62429l-0.09017,-0.01759l-0.0541,-0.07034l-4.8421,-6.86717l-3.41742,3.49074l-0.06312,0.06155l-0.08115,0l-4.6798,0.31654l-3.06576,2.67301l-0.09017,0.07914l-0.11722,-0.03517l-4.02156,-1.25737l-4.34617,2.04872l-0.18034,0.07914l-0.1082,-0.17586l-2.0739,-3.57867l-2.7682,-0.40447l1.78536,3.63142l0.06312,0.11431l-0.07214,0.09672l-2.13702,3.04231l-0.03607,0.05276l-0.06312,0.01759l-2.75017,1.10789l-5.87905,5.27568l2.48868,2.88404l0.13525,0.14948l-0.15329,0.14068l-2.32637,2.11906l1.86651,2.72577l0.03607,0.04396l0,0.06155l0.16231,3.27092l3.03871,2.65542l0.09017,0.07034l-0.00902,0.10551l-0.49593,5.28447l-0.00902,0.07034l-0.04508,0.05276l-2.78624,3.03351l-0.06312,0.06155l-0.08115,0.00879l-4.6798,0.47481l-5.07654,4.6338l2.05586,3.85124l0.09017,0.16706l-0.15329,0.11431l-5.50936,3.7809l-0.78447,3.85124l7.97098,16.13477l3.67892,-2.39164l0.09017,-0.05276l0.09919,0.02638l8.33166,2.70818l0.12624,0.04396l0.02705,0.1231l0.91973,4.5107l0.01803,0.07034l-0.03607,0.07034l-1.98373,3.51712l1.49681,2.91921l3.30922,-2.37405l0.06312,-0.04396l0.06312,0l4.26502,0l0.12624,0l0.06312,0.10551l2.10095,3.57867l-0.00003,-0.00001z" clip-rule="evenodd" fill-rule="evenodd" id="svg_164"/>
  <path stroke="null" fill="url(#svg_135)" d="m451.09037,435.70297l-0.45085,13.39142l2.47064,4.13261l-9.64814,0.80894l-3.17397,6.77045l8.94481,8.95106l0.23444,3.33247l4.94129,-4.58984l8.47593,0.11431l6.11349,-4.82724l3.65186,-7.11337l1.76732,-19.51121l2.47064,-10.21722l-1.64108,-11.94941l-2.41654,-0.66825l-0.13525,-0.03517l-0.02705,-0.13189l-0.5861,-2.85766l-4.02156,-2.8049l-4.50847,3.2973l2.67803,2.82249l4.256,0.35171l0.23444,0.01759l-0.02705,0.21982l-0.97383,6.4715l-0.02705,0.18465l-0.18034,0l-3.02068,0.11431l0.45986,4.12382l0.00902,0.13189l-0.1082,0.07034l-4.34617,2.82249l-0.04508,0.03517l-0.06312,0l-7.14142,0.46602l-1.78536,2.28613l1.38861,2.70818l0.12624,0.2462l-0.27953,0.05276l-3.6158,0.78256l0.00002,-0.00003z" clip-rule="evenodd" fill-rule="evenodd" id="svg_165"/>
  <path stroke="null" fill="url(#svg_134)" d="m447.14997,421.2652l3.1379,4.99431l-1.1722,3.67539l1.91159,5.34602l3.30922,-0.71222l-1.31647,-2.58508l-0.06312,-0.11431l0.08115,-0.10551l1.92963,-2.47077l0.06312,-0.07914l0.09919,-0.00879l7.17749,-0.46602l4.19288,-2.71697l-0.46888,-4.22933l-0.02705,-0.22861l0.23444,-0.00879l3.07478,-0.11431l0.91071,-6.06703l-4.12075,-0.33413l-0.08115,-0.00879l-0.0541,-0.06155l-2.90346,-3.05989l-0.16231,-0.17586l0.19837,-0.14068l4.82407,-3.52591l0.12624,-0.09672l0.13525,0.08793l4.21993,2.94559l0.07214,0.05276l0.01803,0.07914l0.57708,2.81369l2.15505,0.59791l1.07302,-13.5409l-1.53288,-4.24692l-6.82583,-13.5409l-2.2362,-2.63784l-2.00176,-9.53139l-1.36156,-3.16541l-0.4779,-0.50998l-5.10359,-2.05751l-1.76732,-2.06631l1.53288,-2.98955l-3.76908,-1.48598l-7.88081,-1.38047l-6.12251,3.09506l-2.11898,9.07416l-2.58786,-3.21816l-2.94854,3.67539l-2.47064,-6.99906l-5.17573,3.09506l-4.35519,-0.68584l0.23444,-4.01831l5.65363,-13.76951l1.40664,-13.77831l1.6501,-6.65614l-1.40664,-5.50429l1.87553,-4.94155l-0.82054,-5.27568l11.88434,-11.36029l3.76908,0.68584l0.35166,-1.38047l-1.05498,-1.60908l1.65912,-1.06393l-2.04685,-3.49074l-4.06664,0l-3.45349,2.47957l-0.20739,0.14948l-0.11722,-0.21982l-1.66814,-3.25333l-0.0541,-0.09672l0.0541,-0.09672l2.00176,-3.5435l-0.89268,-4.31726l-8.10624,-2.63784l-3.724,2.42681l-0.90169,3.1742l-0.04508,0.13189l-0.13525,0.02638l-4.8962,0.70342l-1.42468,2.4356l-0.0541,0.07914l-0.09017,0.02638l-4.26502,0.89686l-0.0541,0.01759l-0.06312,-0.01759l-6.3299,-2.11906l-1.67715,2.12786l3.29119,8.55539l0.01803,0.07034l-0.01803,0.06155l-2.36244,8.15971l3.57071,2.4444l0.07214,0.04396l0.01803,0.07034l2.03783,7.04303l0.04508,0.17586l-0.16231,0.07034l-2.65098,1.20461l0.18034,3.2885l0,0.04396l-0.00902,0.03517l-1.29844,3.43798l-0.04508,0.1231l-0.14427,0.01759l-5.36508,0.34292l-0.36068,3.97434l-0.00902,0.13189l-0.12624,0.04396l-9.11614,3.37643l0,10.32274l0,0.07914l-0.0541,0.06155l-2.06488,2.34768l4.61668,3.11265l0.15329,0.11431l-0.08115,0.16706l-2.50671,4.70414l4.65275,2.96317l0.0541,0.03517l0.02705,0.06155l1.10908,2.70818l0.0541,0.1231l-0.09919,0.10551l-2.49769,2.61146l1.79437,4.93276l7.38488,-3.74573l0.14427,-0.07914l0.11722,0.1231l2.43458,2.5675l0.09919,0.10551l-0.06312,0.13189l-3.62481,7.65852l0.39675,3.70177l0.01803,0.14068l-0.12624,0.07034l-2.72312,1.51236l0.18034,3.02472l6.08644,0l0.11722,0l0.06312,0.09672l2.7682,4.05348l3.04773,-0.18465l4.95932,-4.44915l0.79349,-3.30609l0.03607,-0.15827l0.18034,0l3.71498,0l1.15417,-2.25975l0.07214,-0.14068l0.16231,0.02638l2.63295,0.39568l0.13525,0.01759l0.03607,0.13189l2.43458,7.3156l0.04508,0.1231l-0.09919,0.08793l-1.61403,1.5827l-0.0541,0.05276l-0.07214,0.00879l-5.99627,0.94083l1.49681,3.10386l0.06312,0.13189l-0.09919,0.10551l-2.38949,2.52353l-0.59512,3.30609l-0.01803,0.05276l-0.03607,0.04396l-3.53464,4.0271l1.51485,1.83769l0.09919,0.1231l-0.09919,0.13189l-2.38949,3.11265l0,3.75452l6.37498,3.10386l0.04508,0.01759l0.02705,0.04396l5.13064,6.91993l3.20102,-2.96317l0.07214,-0.06155l0.08115,0.00879l6.87993,0.11431l0.08115,0l0.0541,0.04396l3.04773,2.40043l9.17925,-3.02472l0.37871,-0.1231l-0.09919,0.37809l-0.96481,3.79849l-0.00002,0z" clip-rule="evenodd" fill-rule="evenodd" id="svg_166"/>
  <path stroke="null" fill="url(#svg_133)" d="m421.10902,427.4905l3.52563,5.42515l3.76007,3.20937l8.00705,-3.7809l1.05498,-3.21816l6.00529,-6.54184l3.27315,-1.4596l0.85661,-3.38523l-8.90875,2.93679l-0.11722,0.04396l-0.09017,-0.07914l-3.0838,-2.42681l-6.71763,-0.11431l-3.3002,3.05989l-4.26502,6.33081l0.00001,0.00002z" clip-rule="evenodd" fill-rule="evenodd" id="svg_167"/>
  <path stroke="null" fill="url(#svg_132)" d="m357.05261,407.09122l8.01607,-4.01831l6.12251,2.06631l7.42095,-1.14306l10.82936,10.43704l13.41722,13.54969l5.29295,-2.06631l3.3002,1.48598l2.35342,-1.14306l4.47241,1.38047l2.41654,-0.30775l4.24698,-6.30443l-5.14868,-6.96389l-6.44712,-3.13903l-0.11722,-0.06155l0,-0.13189l0,-3.94796l0,-0.07034l0.03607,-0.06155l2.33539,-3.03351l-1.51485,-1.84649l-0.11722,-0.14068l0.11722,-0.13189l3.6158,-4.10623l0.59512,-3.30609l0.01803,-0.06155l0.03607,-0.04396l2.33539,-2.47077l-1.55993,-3.22695l-0.12624,-0.25499l0.28854,-0.04396l6.22169,-0.98479l1.47878,-1.44202l-2.35342,-7.06061l-2.34441,-0.35171l-1.14515,2.23337l-0.06312,0.11431l-0.13525,0l-3.67892,0l-0.77546,3.20058l-0.00902,0.06155l-0.0541,0.04396l-5.06753,4.55467l-0.0541,0.04396l-0.08115,0.00879l-3.2461,0.19344l-0.12624,0.00879l-0.07214,-0.10551l-2.7682,-4.05348l-6.16759,0l-0.20739,0l-0.01803,-0.20223l-0.19837,-3.35885l-0.00902,-0.13189l0.11722,-0.07034l2.7141,-1.51236l-0.38773,-3.61384l-0.00902,-0.06155l0.02705,-0.05276l3.58875,-7.57939l-2.21817,-2.34768l-14.92305,7.5618l0.37871,2.22458l0.02705,0.16706l-0.17132,0.06155l-3.23708,1.18703l-0.06312,0.02638l-0.06312,-0.01759l-2.7682,-0.57153l-9.66617,4.31726l-0.12624,0.05276l-0.1082,-0.08793l-2.33539,-1.89924l-6.97912,2.53232l-0.11722,0.04396l-0.09017,-0.07914l-3.59776,-2.72577l-5.50936,-0.18465l-2.37146,2.30371l-0.14427,0.14948l-0.15329,-0.14068l-2.48868,-2.24216l-1.67715,1.45081l-0.14427,0.1231l-0.14427,-0.11431l-3.14692,-2.48836l-3.91336,1.52115l-3.80515,2.4356l4.81505,3.13023l0.18034,0.1231l-0.12624,0.17586l-1.43369,1.96079l2.21817,2.16303l4.02156,-2.18061l0.18936,-0.09672l0.1082,0.18465l1.92061,3.31488l3.0838,-0.71222l0.24346,-0.06155l0.02705,0.25499l0.45085,5.89996l3.1379,1.74977l0.20739,0.11431l-0.13525,0.19344l-1.76732,2.4444l5.00441,7.30681l-0.00001,-0.00001z" clip-rule="evenodd" fill-rule="evenodd" id="svg_168"/>
  <path stroke="null" fill="url(#svg_131)" d="m533.10854,323.53331l0.28854,1.3365l1.77634,1.11668l0.85661,-2.11906l-0.97383,-1.56512l-1.94766,1.23099l0,0.00001z" clip-rule="evenodd" fill-rule="evenodd" id="svg_169"/>
  <path stroke="null" fill="url(#svg_130)" d="m538.71708,320.96582l-0.28854,1.28375l1.94766,0.72101l1.02793,-1.11668l-1.88454,-1.60908l-0.80251,0.72101l0,-0.00001z" clip-rule="evenodd" fill-rule="evenodd" id="svg_170"/>
  <path stroke="null" fill="url(#svg_129)" d="m537.51783,323.76192l-0.45986,5.29326l2.11898,2.6818l1.94766,-0.88807l-0.40576,-5.2493l-1.5419,-1.39805l-1.65912,-0.43964z" clip-rule="evenodd" fill-rule="evenodd" id="svg_171"/>
  <path stroke="null" fill="url(#svg_128)" d="m540.54752,335.53547l-0.28854,1.952l0.91973,1.952l2.51573,-1.11668l0.34264,-1.28375l-3.48956,-1.50357z" clip-rule="evenodd" fill-rule="evenodd" id="svg_172"/>
  <path stroke="null" fill="url(#svg_127)" d="m543.78461,351.04596l-0.93776,1.74977l1.40664,1.97838l1.72224,-1.5915l-1.09105,-1.98717l-1.10007,-0.14948z" clip-rule="evenodd" fill-rule="evenodd" id="svg_173"/>
  <path stroke="null" fill="url(#svg_126)" d="m543.94691,360.8763l0.93776,1.52115l1.32549,-0.45723l0.31559,-2.4356l-1.72224,-0.38688l-0.85661,1.75856l0.00001,0z" clip-rule="evenodd" fill-rule="evenodd" id="svg_174"/>
  <path stroke="null" fill="url(#svg_125)" d="m545.11912,364.83306l-1.40664,1.45081l1.09105,2.89283l3.28217,-0.83532l-1.09105,-2.97196l-1.87553,-0.53636z" clip-rule="evenodd" fill-rule="evenodd" id="svg_175"/>
  <path stroke="null" fill="url(#svg_124)" d="m542.928,376.87039l-1.64108,1.60029l0.08115,3.35885l0.07214,3.49953l0.08115,1.60029l1.72224,0l1.40664,-3.96555l-0.31559,-3.87762l-1.40664,-2.21578l-0.00001,-0.00001z" clip-rule="evenodd" fill-rule="evenodd" id="svg_176"/>
  <path stroke="null" fill="url(#svg_123)" d="m538.00474,389.98045l1.72224,0.07914l0.54102,2.20699l-1.24434,1.89924l-1.64108,2.28613l-0.16231,2.51474l-0.46888,3.12144l-0.30658,2.36526l-0.78447,-0.37809l-0.62217,-4.11503l-0.15329,-5.10861l2.10997,-2.12786l1.1722,-0.99359l-0.16231,-1.74977l0,0.00001z" clip-rule="evenodd" fill-rule="evenodd" id="svg_177"/>
  <path stroke="null" fill="url(#svg_122)" d="m531.8101,417.2381l0.84759,-0.3605l0.33363,-5.95272l1.05498,-1.19582l0.19837,-1.55632l-1.1181,-0.68584l-1.72224,0.79135l-0.94678,0.7298l0.84759,2.61146l-0.30658,3.37643l0.81153,2.24216l0.00001,0z" clip-rule="evenodd" fill-rule="evenodd" id="svg_178"/>
  <path stroke="null" fill="url(#svg_121)" d="m538.23918,411.25021l0.57708,1.29254l1.72224,-0.59791l-0.36969,-1.78494l-0.94678,-1.29254l-0.94678,0.89686l-0.03607,1.48598l0,0.00001z" clip-rule="evenodd" fill-rule="evenodd" id="svg_179"/>
  <path stroke="null" fill="url(#svg_120)" d="m462.34353,367.88416l-0.16231,-0.38688l6.94305,3.67539l2.2362,5.7329l3.40841,4.24692l4.12075,6.42753l2.93953,4.70414l3.41742,2.52353l1.05498,2.98955l0.94678,2.63784l4.23797,1.952l0.5861,4.13261l4.35519,5.38998l0.35166,-4.70414l-0.5861,-3.56108l3.40841,-0.22861l1.29844,-0.57153l3.17397,1.60908l-2.58786,-5.28447l-3.76908,0l-3.99451,-1.71459l-4.58963,-3.21816l-2.94854,-7.34198l-1.6501,-4.71294l3.53464,-1.94321l6.59139,-0.34292l-14.83288,-9.76l-10.46868,-9.17968l-4.83308,-8.83676l-6.59139,-4.47553l-3.05675,-3.78969l-2.11898,0.91445l-0.46888,2.18061l3.8863,2.63784l2.11898,3.10386l-1.18122,1.49477l-1.88454,-0.46602l-0.5861,2.64663l3.76908,2.75214l3.76908,8.37953l-0.31559,-0.1231l0.4779,0.50998l-0.00001,0.00001z" clip-rule="evenodd" fill-rule="evenodd" id="svg_180"/>
  <path stroke="null" fill="url(#svg_37)" d="m226.68556,440.92589l9.98176,3.92159l9.17925,2.0751l1.88454,7.11337l6.70861,3.43798l4.70685,-0.11431l6.70861,-3.904l5.17573,1.60908l5.41017,-0.34292l1.41566,2.40923l3.11986,0.13189l1.01892,-3.68418l0.02705,-0.08793l0.08115,-0.04396l2.98461,-1.52995l-3.20102,-3.40281l-0.15329,-0.16706l0.18034,-0.14068l3.11986,-2.46198l-1.18122,-3.47315l-0.09919,-0.28137l0.30658,0l5.93315,0l3.64285,-2.96317l0.07214,-0.06155l0.09919,0.01759l3.26414,0.43085l6.09546,-7.86955l0.0541,-0.07914l0.09919,-0.00879l3.90434,-0.29016l1.1722,-1.86407l0.04508,-0.06155l0.06312,-0.02638l3.34529,-1.32771l2.54278,-3.06868l0.28854,-3.27092l-2.66902,-1.73218l-0.09919,-0.06155l0,-0.11431l0,-3.16541l0,-0.10551l0.09017,-0.06155l5.81593,-4.32605l1.98373,-4.46674l0.03607,-0.08793l0.09017,-0.02638l5.08556,-1.74977l-0.28854,-3.96555l-3.12888,-2.76094l-3.48054,-0.58912l-0.12624,-0.02638l-0.04508,-0.1231l-2.91247,-8.52022l-1.81241,-1.61787l-0.14427,-0.1231l0.11722,-0.15827l1.80339,-2.48836l-0.25247,-2.4444l-2.13702,2.34768l-0.08115,0.07914l-0.11722,-0.01759l-1.81241,-0.26378l-1.02793,3.86883l-0.02705,0.1231l-0.12624,0.03517l-9.72027,2.54991l-0.14427,0.04396l-0.09017,-0.1231l-1.63207,-2.16303l-2.20014,0l-0.0541,0l-0.0541,-0.02638l-2.10095,-1.0991l-1.13614,2.64663l-0.04508,0.08793l-0.09017,0.02638l-4.62569,1.51236l-0.07214,0.01759l-0.07214,-0.01759l-2.38949,-0.82652l-0.56807,2.62025l-0.02705,0.14948l-0.15329,0.01759l-4.70685,0.58032l0.40576,2.25095l2.86739,2.35647l0.17132,0.14068l-0.14427,0.16706l-2.42556,2.8049l-0.45085,4.24692l1.56895,3.57867l0.24346,-0.71222l0.96481,-5.83841l0,-0.03517l0.01803,-0.03517l1.56895,-2.69939l0.07214,-0.1231l0.14427,0.01759l2.03783,0.23741l0.16231,0.01759l0.02705,0.15827l0.36068,2.22458l0.00902,0.04396l-0.00902,0.02638l-0.9558,5.2493l0.36068,5.10861l0.82956,2.78732l0.02705,0.07034l-0.02705,0.07034l-1.08203,2.69939l-0.01803,0.04396l-0.03607,0.03517l-1.65912,1.49477l-0.54102,0.94962l0.57708,1.78494l0.01803,0.07034l-0.02705,0.07034l-0.72136,1.75856l-0.04508,0.10551l-0.1082,0.02638l-1.75831,0.43085l-0.11722,1.952l0,0.05276l-0.02705,0.04396l-2.29031,3.63142l-0.04508,0.07034l-0.07214,0.02638l-3.41742,1.02876l-2.24522,2.98955l-0.07214,0.10551l-0.11722,-0.01759l-2.56983,-0.21982l-0.68529,3.79849l-0.00902,0.06155l-0.03607,0.04396l-1.92963,2.11027l-0.02705,0.03517l-0.04508,0.01759l-6.15858,2.65542l-0.81153,2.71697l-0.03607,0.10551l-0.1082,0.03517l-3.96746,1.29254l-0.22542,0.07034l-0.0541,-0.21982l-0.56807,-2.21578l-4.18386,-0.79135l-0.16231,-0.03517l-0.01803,-0.15827l-0.35166,-2.98076l-2.90346,-3.62263l-3.85925,0l-0.07214,0l-0.06312,-0.04396l-8.05214,-6.2165l-0.02705,-0.01759l-0.00902,-0.02638l-2.51573,-3.34126l-4.03959,2.8049l-0.0541,0.04396l-0.07214,0l-2.29932,-0.05276l0.1082,0.4924l0.03607,0.11431l-0.09017,0.08793l-1.23532,1.20461l0.45085,1.74977l0.02705,0.11431l-0.07214,0.07914l-1.7042,1.89045l1.52386,2.87524l0.00004,0z" clip-rule="evenodd" fill-rule="evenodd" id="svg_263"/>
  <path stroke="null" fill="url(#svg_27)" d="m281.41844,457.28048l1.97471,0.07914l2.00176,3.67539l15.41898,1.37168l10.36047,-6.08461l3.3002,-0.11431l1.05498,-3.33247l5.05851,-4.58984l7.06027,-0.34292l2.11898,1.952l2.93953,-2.63784l12.47946,1.952l1.76732,-4.70414l4.23797,-2.86645l-1.76732,-4.24692l1.88454,-11.47459l3.17397,-3.10386l-2.11898,-5.51308l-4.47241,-0.45723l3.18298,-5.74169l5.60854,-3.78969l-5.07654,-7.42112l-0.08115,-0.1231l0.09017,-0.11431l1.71322,-2.36526l-3.02969,-1.68822l-0.09919,-0.06155l-0.00902,-0.11431l-0.44183,-5.76807l-2.99363,0.69463l-0.16231,0.03517l-0.08115,-0.14068l-1.89356,-3.27971l-3.97647,2.15423l-0.14427,0.07914l-0.11722,-0.11431l-2.47064,-2.40923l-0.13525,-0.13189l0.1082,-0.14948l1.41566,-1.92562l-4.90522,-3.19178l-0.04508,-0.02638l-0.02705,-0.05276l-6.26678,-11.31632l-5.04047,0.14948l-1.85749,1.38926l0.29756,5.20533l3.6158,2.49715l0.09919,0.07034l0,0.11431l-0.15329,4.5107l0,0.10551l-0.09017,0.06155l-3.54366,2.40923l-0.07214,0.04396l-0.08115,-0.00879l-5.88807,-0.87928l-1.65912,2.29492l1.71322,1.52995l0.03607,0.03517l0.01803,0.05276l2.89444,8.44987l3.41742,0.58032l0.06312,0.00879l0.04508,0.04396l3.23708,2.85766l0.06312,0.06155l0.00902,0.08793l0.30658,4.21175l0.00902,0.16706l-0.15329,0.05276l-5.15769,1.77614l-1.96569,4.43157l-0.02705,0.05276l-0.04508,0.03517l-5.77986,4.29968l0,2.93679l2.67803,1.74097l0.1082,0.07034l-0.00902,0.1231l-0.30658,3.46436l-0.00902,0.06155l-0.04508,0.05276l-2.62393,3.15661l-0.03607,0.04396l-0.0541,0.01759l-3.32725,1.32771l-1.19925,1.89924l-0.0541,0.09672l-0.1082,0.00879l-3.91336,0.29016l-6.11349,7.89593l-0.08115,0.09672l-0.12624,-0.01759l-3.3002,-0.43964l-3.62481,2.94559l-0.06312,0.05276l-0.08115,0l-5.70773,0l1.13614,3.33247l0.04508,0.14068l-0.11722,0.08793l-3.06576,2.41802l3.23708,3.44677l0.18936,0.20223l-0.25247,0.13189l-3.15593,1.60908l-0.96481,3.50832l-0.00004,0.00003z" clip-rule="evenodd" fill-rule="evenodd" id="svg_273"/>
  <path stroke="null" fill="url(#svg_6)" d="m548.45539,248.17908l1.83946,1.78494l3.57071,-2.85766l-1.55993,-0.3605l-3.85024,1.43323l0,-0.00001z" clip-rule="evenodd" fill-rule="evenodd" id="svg_294"/>
  <path stroke="null" fill="url(#svg_5)" d="m505.05681,236.30002l-1.37959,4.01831l5.22081,5.71532l0.73037,-8.21247l-2.83132,-1.24858l-1.74027,-0.27258z" clip-rule="evenodd" fill-rule="evenodd" id="svg_295"/>
  <path stroke="null" fill="url(#svg_4)" d="m539.48352,251.30052l1.37058,2.05751l5.22081,0.80014l2.10997,-1.06393l-1.28041,-2.14544l-3.85024,-0.44843l-3.57071,0.80014l0,0.00001z" clip-rule="evenodd" fill-rule="evenodd" id="svg_296"/>
  <path stroke="null" fill="url(#svg_3)" d="m539.50156,318.48625l-0.93776,-11.47459l-1.29844,-5.28447l-3.87729,-3.7809l0.35166,-5.62739l2.00176,-1.60908l-6.70861,-7.57059l0.11722,-5.28447l2.82231,-2.98076l-0.70332,-2.98955l-5.65363,-1.60029l-5.77085,-9.98861l1.41566,-0.91445l1.76732,2.40923l2.82231,-1.72339l-4.35519,-4.01831l-2.35342,1.26616l-3.76007,-2.38285l-0.06312,0.07034l-1.93864,-4.45795l-3.8863,0l-0.46888,2.63784l-2.47966,-0.22861l-7.99803,-15.616l0.46888,-4.93276l3.18298,-0.68584l-2.36244,-9.17968l5.06753,3.89521l0.11722,-11.01737l4.00353,-4.01831l5.99627,-0.11431l-3.40841,-8.14213l-1.63207,-17.55921l-3.8863,1.15186l-0.08115,0.02638l-0.08115,-0.04396l-2.89444,-1.48598l-4.99539,13.99813l-0.0541,0.14948l-0.16231,-0.00879l-6.35695,-0.15827l-5.87003,1.74977l-0.19837,0.06155l-1.98373,-5.31964l-7.91688,0.46602l-1.41566,2.45319l-0.04508,0.08793l-0.09919,0.01759l-5.45525,1.25737l-0.94678,2.76094l-0.04508,0.13189l-0.13525,0.00879l-2.97559,0.30775l-0.93776,3.21816l-0.03607,0.11431l-0.1082,0.03517l-3.42644,1.05514l0.61315,3.2885l4.92325,6.98148l3.05675,0.62429l0.11722,0.02638l0.03607,0.10551l2.09193,5.32843l3.47153,-0.30775l0.09017,-0.00879l0.07214,0.06155l2.31736,2.09268l0.0541,0.05276l0.00902,0.07034l0.64922,3.27971l3.192,1.75856l2.20915,-2.00476l-6.00529,-7.00786l1.41566,-4.58984l5.76183,-1.952l-3.05675,4.47553l0.70332,3.44677l4.58963,3.09506l2.11898,0.11431l-0.11722,3.21816l2.00176,0.45723l-1.88454,9.17968l2.11898,3.44677l0.71234,10.67445l1.64108,6.88476l2.2362,6.88476l-2.58786,2.76094l0.82054,2.63784l-1.40664,1.83769l3.64285,4.13261l0.59512,6.54184l10.94658,12.04613l32.47905,21.23459l-0.00005,0z" id="svg_297"/>

 </g>
</svg>