<?xml version="1.0" encoding="UTF-8" standalone="no"?>
<svg
   width="800"
   height="600"
   version="1.1"
   id="svg70"
   sodipodi:docname="far-east-map.svg"
   inkscape:version="1.4.2 (f4327f4, 2025-05-13)"
   xmlns:inkscape="http://www.inkscape.org/namespaces/inkscape"
   xmlns:sodipodi="http://sodipodi.sourceforge.net/DTD/sodipodi-0.dtd"
   xmlns="http://www.w3.org/2000/svg"
   xmlns:svg="http://www.w3.org/2000/svg"
   xmlns:rdf="http://www.w3.org/1999/02/22-rdf-syntax-ns#"
   xmlns:cc="http://creativecommons.org/ns#"
   xmlns:dc="http://purl.org/dc/elements/1.1/">
  <sodipodi:namedview
     id="namedview70"
     pagecolor="#ffffff"
     bordercolor="#000000"
     borderopacity="0.25"
     inkscape:showpageshadow="2"
     inkscape:pageopacity="0.0"
     inkscape:pagecheckerboard="0"
     inkscape:deskcolor="#d1d1d1"
     inkscape:zoom="1.945"
     inkscape:cx="399.74293"
     inkscape:cy="300"
     inkscape:window-width="3440"
     inkscape:window-height="1369"
     inkscape:window-x="-8"
     inkscape:window-y="-8"
     inkscape:window-maximized="1"
     inkscape:current-layer="Layer_1" />
  <title
     id="title1">Drawing</title>
  <defs
     id="defs70">
    <linearGradient
       id="svg_370"
       x1="320.98767"
       y1="102.846"
       x2="320.98767"
       y2="451.1533"
       gradientTransform="scale(1.0302703,0.97061909)"
       gradientUnits="userSpaceOnUse">
      <stop
         stop-color="#FEF2CF"
         id="stop1" />
      <stop
         offset="1"
         stop-color="#FBCC82"
         id="stop2" />
    </linearGradient>
    <linearGradient
       id="svg_368"
       x1="341.88156"
       y1="96.560488"
       x2="341.88156"
       y2="423.58231"
       gradientTransform="scale(0.96730672,1.0337983)"
       gradientUnits="userSpaceOnUse">
      <stop
         stop-color="#FEF2CF"
         id="stop3" />
      <stop
         offset="1"
         stop-color="#FBCC82"
         id="stop4" />
    </linearGradient>
    <linearGradient
       id="svg_366"
       x1="274.73467"
       y1="120.16053"
       x2="274.73467"
       y2="527.10936"
       gradientTransform="scale(1.2037236,0.83075549)"
       gradientUnits="userSpaceOnUse">
      <stop
         stop-color="#FEF2CF"
         id="stop5" />
      <stop
         offset="1"
         stop-color="#FBCC82"
         id="stop6" />
    </linearGradient>
    <linearGradient
       id="svg_364"
       x1="410.23578"
       y1="80.471647"
       x2="410.23578"
       y2="353.00443"
       gradientTransform="scale(0.80613341,1.2404895)"
       gradientUnits="userSpaceOnUse">
      <stop
         stop-color="#FEF2CF"
         id="stop7" />
      <stop
         offset="1"
         stop-color="#FBCC82"
         id="stop8" />
    </linearGradient>
    <linearGradient
       id="svg_362"
       x1="298.15566"
       y1="110.7217"
       x2="298.15566"
       y2="485.70308"
       gradientTransform="scale(1.1091679,0.90157675)"
       gradientUnits="userSpaceOnUse">
      <stop
         stop-color="#FEF2CF"
         id="stop9" />
      <stop
         offset="1"
         stop-color="#FBCC82"
         id="stop10" />
    </linearGradient>
    <linearGradient
       id="svg_360"
       x1="263.60845"
       y1="125.23259"
       x2="263.60845"
       y2="549.356"
       gradientTransform="scale(1.25453,0.79711129)"
       gradientUnits="userSpaceOnUse">
      <stop
         stop-color="#FEF2CF"
         id="stop11" />
      <stop
         offset="1"
         stop-color="#FBCC82"
         id="stop12" />
    </linearGradient>
    <linearGradient
       id="svg_358"
       x1="332.58248"
       y1="99.260653"
       x2="332.58248"
       y2="435.42587"
       gradientTransform="scale(0.99435391,1.0056782)"
       gradientUnits="userSpaceOnUse">
      <stop
         stop-color="#FEF2CF"
         id="stop13" />
      <stop
         offset="1"
         stop-color="#FBCC82"
         id="stop14" />
    </linearGradient>
    <linearGradient
       id="svg_356"
       x1="314.05595"
       y1="105.11621"
       x2="314.05595"
       y2="461.11187"
       gradientTransform="scale(1.0530121,0.94965674)"
       gradientUnits="userSpaceOnUse">
      <stop
         stop-color="#FEF2CF"
         id="stop15" />
      <stop
         offset="1"
         stop-color="#FBCC82"
         id="stop16" />
    </linearGradient>
    <linearGradient
       id="svg_354"
       x1="360.61028"
       y1="91.54578"
       x2="360.61028"
       y2="401.58311"
       gradientTransform="scale(0.91706968,1.0904297)"
       gradientUnits="userSpaceOnUse">
      <stop
         stop-color="#FEF2CF"
         id="stop17" />
      <stop
         offset="1"
         stop-color="#FBCC82"
         id="stop18" />
    </linearGradient>
    <linearGradient
       id="svg_352"
       x1="342.62054"
       y1="96.353081"
       x2="342.62054"
       y2="422.66859"
       gradientTransform="scale(0.96522148,1.0360317)"
       gradientUnits="userSpaceOnUse">
      <stop
         stop-color="#FEF2CF"
         id="stop19" />
      <stop
         offset="1"
         stop-color="#FBCC82"
         id="stop20" />
    </linearGradient>
    <linearGradient
       id="svg_350"
       x1="3.80958"
       y1="-0.71681"
       x2="3.80958"
       y2="7.41465">
      <stop
         stop-color="#FBC87B"
         id="stop21" />
      <stop
         offset="1"
         stop-color="#F7A22D"
         id="stop22" />
    </linearGradient>
    <linearGradient
       id="svg_348"
       x1="0.5"
       y1="0"
       x2="0.5"
       y2="1">
      <stop
         stop-color="#FBC87B"
         id="stop23" />
      <stop
         offset="1"
         stop-color="#F7A22D"
         id="stop24" />
    </linearGradient>
    <linearGradient
       id="svg_346"
       x1="0.5"
       y1="0"
       x2="0.5"
       y2="1">
      <stop
         stop-color="#A76001"
         id="stop25" />
      <stop
         offset="1"
         stop-color="#7A4602"
         id="stop26" />
    </linearGradient>
    <linearGradient
       id="svg_344"
       x1="0.5"
       y1="0"
       x2="0.5"
       y2="1">
      <stop
         stop-color="#FEF2CF"
         id="stop27" />
      <stop
         offset="1"
         stop-color="#FBCC82"
         id="stop28" />
    </linearGradient>
    <linearGradient
       id="svg_342"
       x1="0.5"
       y1="0"
       x2="0.5"
       y2="1">
      <stop
         stop-color="#FBC87B"
         id="stop29" />
      <stop
         offset="1"
         stop-color="#F7A22D"
         id="stop30" />
    </linearGradient>
    <linearGradient
       id="svg_340"
       x1="0.5"
       y1="0"
       x2="0.5"
       y2="1">
      <stop
         stop-color="#F79F26"
         id="stop31" />
      <stop
         offset="1"
         stop-color="#DD7F01"
         id="stop32" />
    </linearGradient>
    <linearGradient
       id="svg_338"
       x1="0.5"
       y1="0"
       x2="0.5"
       y2="1">
      <stop
         stop-color="#F79F26"
         id="stop33" />
      <stop
         offset="1"
         stop-color="#DD7F01"
         id="stop34" />
    </linearGradient>
    <linearGradient
       id="svg_336"
       x1="641.03592"
       y1="306.94829"
       x2="641.03592"
       y2="440.698"
       gradientTransform="scale(0.89170791,1.1214435)"
       gradientUnits="userSpaceOnUse">
      <stop
         stop-color="#DA7D01"
         id="stop35" />
      <stop
         offset="1"
         stop-color="#AC6201"
         id="stop36" />
    </linearGradient>
    <linearGradient
       id="svg_334"
       x1="546.34971"
       y1="360.14424"
       x2="546.34971"
       y2="517.07558"
       gradientTransform="scale(1.0462463,0.95579788)"
       gradientUnits="userSpaceOnUse">
      <stop
         stop-color="#DA7D01"
         id="stop37" />
      <stop
         offset="1"
         stop-color="#AC6201"
         id="stop38" />
    </linearGradient>
    <linearGradient
       id="svg_332"
       x1="799.39808"
       y1="246.1412"
       x2="799.39808"
       y2="353.39537"
       gradientTransform="scale(0.71505887,1.3984862)"
       gradientUnits="userSpaceOnUse">
      <stop
         stop-color="#DA7D01"
         id="stop39" />
      <stop
         offset="1"
         stop-color="#AC6201"
         id="stop40" />
    </linearGradient>
    <linearGradient
       id="svg_330"
       x1="580.27233"
       y1="339.09004"
       x2="580.27233"
       y2="486.84654"
       gradientTransform="scale(0.9850824,1.0151435)"
       gradientUnits="userSpaceOnUse">
      <stop
         stop-color="#DA7D01"
         id="stop41" />
      <stop
         offset="1"
         stop-color="#AC6201"
         id="stop42" />
    </linearGradient>
    <linearGradient
       id="svg_328"
       x1="623.11275"
       y1="315.77743"
       x2="623.11275"
       y2="453.37534"
       gradientTransform="scale(0.91735733,1.0900878)"
       gradientUnits="userSpaceOnUse">
      <stop
         stop-color="#DA7D01"
         id="stop43" />
      <stop
         offset="1"
         stop-color="#AC6201"
         id="stop44" />
    </linearGradient>
    <linearGradient
       id="svg_326"
       x1="643.74974"
       y1="305.65361"
       x2="643.74974"
       y2="438.83921"
       gradientTransform="scale(0.88794595,1.1261947)"
       gradientUnits="userSpaceOnUse">
      <stop
         stop-color="#DA7D01"
         id="stop45" />
      <stop
         offset="1"
         stop-color="#AC6201"
         id="stop46" />
    </linearGradient>
    <linearGradient
       id="svg_324"
       x1="568.90565"
       y1="345.86527"
       x2="568.90565"
       y2="496.57406"
       gradientTransform="scale(1.0047652,0.99525737)"
       gradientUnits="userSpaceOnUse">
      <stop
         stop-color="#DA7D01"
         id="stop47" />
      <stop
         offset="1"
         stop-color="#AC6201"
         id="stop48" />
    </linearGradient>
    <linearGradient
       id="svg_322"
       x1="987.20281"
       y1="199.31552"
       x2="987.20281"
       y2="286.16594"
       gradientTransform="scale(0.57902675,1.7270359)"
       gradientUnits="userSpaceOnUse">
      <stop
         stop-color="#DA7D01"
         id="stop49" />
      <stop
         offset="1"
         stop-color="#AC6201"
         id="stop50" />
    </linearGradient>
    <linearGradient
       id="svg_320"
       x1="935.99725"
       y1="210.21941"
       x2="935.99725"
       y2="301.82087"
       gradientTransform="scale(0.61070298,1.6374572)"
       gradientUnits="userSpaceOnUse">
      <stop
         stop-color="#DA7D01"
         id="stop51" />
      <stop
         offset="1"
         stop-color="#AC6201"
         id="stop52" />
    </linearGradient>
    <linearGradient
       id="svg_318"
       x1="915.98475"
       y1="214.81203"
       x2="915.98475"
       y2="308.41512"
       gradientTransform="scale(0.62404567,1.6024468)"
       gradientUnits="userSpaceOnUse">
      <stop
         stop-color="#DA7D01"
         id="stop53" />
      <stop
         offset="1"
         stop-color="#AC6201"
         id="stop54" />
    </linearGradient>
    <linearGradient
       id="svg_316"
       x1="721.71466"
       y1="272.6348"
       x2="721.71466"
       y2="391.43384"
       gradientTransform="scale(0.79202535,1.2625858)"
       gradientUnits="userSpaceOnUse">
      <stop
         stop-color="#DA7D01"
         id="stop55" />
      <stop
         offset="1"
         stop-color="#AC6201"
         id="stop56" />
    </linearGradient>
    <linearGradient
       id="svg_314"
       x1="654.40759"
       y1="300.67604"
       x2="654.40759"
       y2="431.69312"
       gradientTransform="scale(0.87348663,1.1448372)"
       gradientUnits="userSpaceOnUse">
      <stop
         stop-color="#DA7D01"
         id="stop57" />
      <stop
         offset="1"
         stop-color="#AC6201"
         id="stop58" />
    </linearGradient>
    <linearGradient
       id="svg_312"
       x1="0.5"
       y1="0"
       x2="0.5"
       y2="1">
      <stop
         stop-color="#FEF2CF"
         id="stop59" />
      <stop
         offset="1"
         stop-color="#FBCC82"
         id="stop60" />
    </linearGradient>
    <linearGradient
       id="svg_310"
       x1="0.5"
       y1="0"
       x2="0.5"
       y2="1">
      <stop
         stop-color="#A76001"
         id="stop61" />
      <stop
         offset="1"
         stop-color="#7A4602"
         id="stop62" />
    </linearGradient>
    <linearGradient
       id="svg_308"
       x1="448.2426"
       y1="175.84355"
       x2="448.2426"
       y2="443.39497"
       gradientTransform="scale(1.2983526,0.77020678)"
       gradientUnits="userSpaceOnUse">
      <stop
         stop-color="#F79F26"
         id="stop63" />
      <stop
         offset="1"
         stop-color="#DD7F01"
         id="stop64" />
    </linearGradient>
    <linearGradient
       id="svg_306"
       x1="0.53637"
       y1="-5.24661"
       x2="0.53637"
       y2="8.44353">
      <stop
         stop-color="#F79F26"
         id="stop65" />
      <stop
         offset="1"
         stop-color="#DD7F01"
         id="stop66" />
    </linearGradient>
    <linearGradient
       id="svg_304"
       x1="376.81785"
       y1="209.17462"
       x2="376.81785"
       y2="527.43902"
       gradientTransform="scale(1.544452,0.64747884)"
       gradientUnits="userSpaceOnUse">
      <stop
         stop-color="#F79F26"
         id="stop67" />
      <stop
         offset="1"
         stop-color="#DD7F01"
         id="stop68" />
    </linearGradient>
    <linearGradient
       id="svg_302"
       x1="751.833"
       y1="104.83793"
       x2="751.833"
       y2="264.35177"
       gradientTransform="scale(0.77407725,1.2918607)"
       gradientUnits="userSpaceOnUse">
      <stop
         stop-color="#F79F26"
         id="stop69" />
      <stop
         offset="1"
         stop-color="#DD7F01"
         id="stop70" />
    </linearGradient>
  </defs>
  <g
     id="Layer_1">
    <title
       id="title70">Layer 1</title>
    <path
       id="svg_347"
       d="m 586.73111,135.31367 -1.78971,-19.21323 -5.46701,-3.01864 12.96141,-8.70238 -1.83166,-5.8605 -24.09117,-1.94444 -2.92226,3.72571 -6.5716,0.5303 -0.72707,4.96308 -5.28524,-0.35353 v -6.92111 l 6.01231,-1.94444 2.37696,-4.79991 -1.27237,-12.59126 -2.37696,-0.89743 -2.92226,1.78127 -0.18177,-4.62314 -5.66275,2.1348 -3.83109,-4.256 1.46812,-6.92111 4.73994,4.07924 2.74049,-2.1348 4.01286,4.26961 2.37696,-5.3302 -0.5453,-6.39081 4.37641,-3.54894 7.6622,0.70708 12.77965,-9.40944 -3.10402,-3.54894 6.38983,0.89743 -0.18177,-6.03728 -6.93513,1.23736 -2.01342,-4.256 -9.31209,-1.78127 3.66331,-4.43277 -4.75391,-3.37217 4.37641,-3.01864 -5.46701,-6.92111 -15.52014,8.87914 -0.90883,7.27464 -4.19463,5.31661 10.40269,4.09284 -5.66275,2.47474 -16.79252,-4.43277 -19.51902,12.60485 -29.20863,15.43313 -7.84397,12.42808 0.72707,3.72571 -5.29921,1.42773 -7.48043,6.56758 5.29921,6.39081 4.73994,-1.42773 7.1169,3.90247 -0.72707,6.92111 -6.5716,0.72067 -4.37641,2.47474 -9.31209,-5.67014 v 11.53066 l -9.49385,6.92111 -3.66331,6.90752 15.75783,11.48986 0.13982,0.0952 v 7.20666 l -0.0839,0.0952 -11.81488,13.44789 2.92226,7.35623 5.64878,2.39315 h 7.77405 l 0.0979,0.19037 2.97819,6.02368 4.90772,0.70708 0.15381,0.0272 0.0839,0.14957 3.14597,5.41179 6.58557,-3.08662 0.12584,-0.0544 0.12584,0.0408 6.1661,1.91724 4.69798,-4.06564 0.0839,-0.0816 0.11186,-0.0136 7.24273,-0.47591 5.38312,-5.47979 -0.97875,-5.27581 -0.0559,-0.28555 0.27964,-0.0816 5.42506,-1.68609 1.46812,-5.01746 0.0699,-0.21755 0.22371,-0.0272 4.61409,-0.46231 1.45414,-4.256 0.0699,-0.17677 0.18177,-0.0408 8.50111,-1.94444 2.20918,-3.82088 0.0979,-0.16316 0.18177,-0.0136 12.70974,-0.73426 0.25169,-0.0136 0.0839,0.23116 2.95023,7.85933 8.83669,-2.62431 0.0559,-0.0136 h 0.0559 l 9.67562,0.23116 7.80202,-21.76954 0.12584,-0.36714 0.34955,0.17677 4.71197,2.40675 6.01231,-1.76767 v -8e-5 z m -121.49055,-91.2934 7.87192,9.08312 1.71979,-1.68609 2.15324,-10.45646 2.57271,-4.88149 -2.86633,-3.76649 -7.15884,0.55749 -4.2925,6.26844 v 4.88149 z" />
    <path
       stroke="null"
       id="svg_345"
       fill-rule="evenodd"
       clip-rule="evenodd"
       d="m485.52861,307.53919l4.87976,-3.12741l3.28579,-2.66511l4.55817,-1.06061l-1.45414,-9.05591l8.02573,-2.48833l6.20806,-5.31661l5.66275,-0.17677l-4.20861,5.84691l4.02685,3.38578l5.83054,-6.39081l1.46812,-10.11652l5.28524,-1.95803l4.19463,-5.3302l-4.37641,-3.19541l-3.83109,4.62314l-4.01286,-3.72571l-1.0906,-18.2886l-3.46756,-10.82358l1.0906,-7.99531l6.75336,-9.39585l3.83109,-0.17677l1.83166,-5.3302l7.84397,10.47005l5.46701,-0.88383l0.37752,-3.90247l-1.28636,-7.99531l-1.38423,-5.61575l-5.27126,-2.89625l-0.13982,-0.06798l-0.02796,-0.16316l-1.00671,-5.11265l-3.39765,-3.07303l-5.48098,0.48951l-0.25169,0.01359l-0.09788,-0.23116l-3.25783,-8.29445l-4.68401,-0.96542l-0.13982,-0.0272l-0.08389,-0.10878l-7.50839,-10.61962l-5.29921,5.3982l-0.09788,0.09518l-0.12584,0l-7.25672,0.48951l-4.75391,4.13363l-0.13982,0.12238l-0.18177,-0.05439l-6.23602,-1.94444l-6.73938,3.16821l-0.27964,0.12238l-0.16778,-0.27196l-3.21589,-5.53417l-4.2925,-0.62549l2.76846,5.61575l0.09788,0.17677l-0.11186,0.14957l-3.31376,4.70473l-0.05593,0.08159l-0.09788,0.0272l-4.26454,1.71328l-9.11633,8.15849l3.85907,4.45998l0.20973,0.23116l-0.2377,0.21755l-3.60738,3.27699l2.8943,4.21522l0.05593,0.06798l0,0.09518l0.25169,5.05826l4.71197,4.10643l0.13982,0.10878l-0.01399,0.16316l-0.76901,8.17208l-0.01399,0.10878l-0.0699,0.08159l-4.32048,4.69112l-0.09788,0.09518l-0.12584,0.01359l-7.25672,0.73426l-7.87192,7.16586l3.18791,5.95569l0.13982,0.25835l-0.2377,0.17677l-8.54308,5.84691l-1.21644,5.95569l12.36018,24.95135l5.70471,-3.69851l0.13982,-0.08159l0.15381,0.04079l12.91947,4.18802l0.19575,0.06798l0.04195,0.19037l1.42618,6.9755l0.02796,0.10878l-0.05593,0.10878l-3.07607,5.43899l2.32102,4.51436l5.13143,-3.67131l0.09788,-0.06798l0.09788,0l6.61354,0l0.19575,0l0.09788,0.16316l3.25783,5.53417l-0.00005,-0.00002l0.00002,0z"
       fill="url(#svg_346)" />
    <path
       stroke="null"
       id="svg_343"
       fill-rule="evenodd"
       clip-rule="evenodd"
       d="m495.48386,522.77351l-0.69911,20.70894l3.83109,6.39081l-14.96086,1.25097l-4.92171,10.47005l13.87025,13.84222l0.36353,5.15344l7.6622,-7.09788l13.14318,0.17677l9.47987,-7.465l5.66275,-11.00035l2.74049,-30.17279l3.83109,-15.80025l-2.54474,-18.47897l-3.7472,-1.0334l-0.20973,-0.05439l-0.04195,-0.20396l-0.90883,-4.41918l-6.23602,-4.33759l-6.99105,5.09905l4.15268,4.36479l6.59956,0.5439l0.36353,0.0272l-0.04195,0.33994l-1.51007,10.00774l-0.04195,0.28555l-0.27964,0l-4.68401,0.17677l0.71308,6.37721l0.01399,0.20396l-0.16778,0.10878l-6.73938,4.36479l-0.0699,0.05439l-0.09788,0l-11.07383,0.72067l-2.76846,3.53535l2.15324,4.18802l0.19575,0.38073l-0.43345,0.08159l-5.60683,1.21018l0.00003,-0.00005l0.00002,0z"
       fill="url(#svg_344)" />
    <path
       stroke="null"
       id="svg_341"
       fill-rule="evenodd"
       clip-rule="evenodd"
       d="m489.37369,500.44646l4.86578,7.72337l-1.81767,5.68375l2.9642,8.26726l5.13143,-1.1014l-2.04138,-3.99765l-0.09788,-0.17677l0.12584,-0.16316l2.99218,-3.82088l0.09788,-0.12238l0.15381,-0.01359l11.12976,-0.72067l6.50168,-4.20161l-0.72707,-6.54038l-0.04195,-0.35353l0.36353,-0.01359l4.7679,-0.17677l1.41219,-9.38226l-6.38983,-0.51671l-0.12584,-0.01359l-0.08389,-0.09518l-4.50224,-4.73192l-0.25169,-0.27196l0.3076,-0.21755l7.48043,-5.45258l0.19575,-0.14957l0.20973,0.13598l6.54362,4.55516l0.11186,0.08159l0.02796,0.12238l0.89485,4.35118l3.34172,0.92463l1.66388,-20.9401l-2.37696,-6.56758l-10.58446,-20.9401l-3.46756,-4.07924l-3.10402,-14.73966l-2.1113,-4.8951l-0.74105,-0.78865l-7.91387,-3.1818l-2.74049,-3.19541l2.37696,-4.62314l-5.84451,-2.29797l-12.22036,-2.1348l-9.49385,4.7863l-3.28579,14.03258l-4.01286,-4.97667l-4.57215,5.68375l-3.83109,-10.82358l-8.02573,4.7863l-6.75336,-1.06061l0.36353,-6.21405l8.76679,-21.29363l2.1812,-21.30724l2.55872,-10.29328l-2.1812,-8.51202l2.90829,-7.64178l-1.27237,-8.15849l18.42842,-17.56793l5.84451,1.06061l0.5453,-2.1348l-1.6359,-2.48833l2.57271,-1.6453l-3.17394,-5.3982l-6.30593,0l-5.35515,3.83449l-0.32159,0.23116l-0.18177,-0.33994l-2.5867,-5.03106l-0.08389,-0.14957l0.08389,-0.14957l3.10402,-5.47979l-1.38423,-6.67635l-12.56992,-4.07924l-5.77461,3.7529l-1.3982,4.90869l-0.0699,0.20396l-0.20973,0.04079l-7.59228,1.08779l-2.20918,3.76649l-0.08389,0.12238l-0.13982,0.04079l-6.61354,1.38693l-0.08389,0.0272l-0.09788,-0.0272l-9.81544,-3.27699l-2.60067,3.29059l5.10348,13.23034l0.02796,0.10878l-0.02796,0.09518l-3.66331,12.61845l5.53691,3.7801l0.11186,0.06798l0.02796,0.10878l3.15996,10.89158l0.0699,0.27196l-0.25169,0.10878l-4.11074,1.86285l0.27964,5.08545l0,0.06798l-0.01399,0.05439l-2.01342,5.31661l-0.0699,0.19037l-0.22371,0.0272l-8.31935,0.5303l-0.55929,6.14605l-0.01399,0.20396l-0.19575,0.06798l-14.13592,5.22142l0,15.96343l0,0.12238l-0.08389,0.09518l-3.2019,3.63053l7.15884,4.81351l0.2377,0.17677l-0.12584,0.25835l-3.88702,7.27464l7.21478,4.58234l0.08389,0.05439l0.04195,0.09518l1.71979,4.18802l0.08389,0.19037l-0.15381,0.16316l-3.87304,4.03845l2.78244,7.62818l11.45135,-5.79252l0.22371,-0.12238l0.18177,0.19037l3.77518,3.97047l0.15381,0.16316l-0.09788,0.20396l-5.6208,11.84339l0.61522,5.72454l0.02796,0.21755l-0.19575,0.10878l-4.2226,2.33876l0.27964,4.67753l9.43792,0l0.18177,0l0.09788,0.14957l4.2925,6.26844l4.72595,-0.28555l7.69016,-6.88031l1.23042,-5.11265l0.05593,-0.24475l0.27964,0l5.76062,0l1.78971,-3.49455l0.11186,-0.21755l0.25169,0.04079l4.08278,0.61189l0.20973,0.0272l0.05593,0.20396l3.77518,11.31309l0.0699,0.19037l-0.15381,0.13598l-2.50279,2.44754l-0.08389,0.08159l-0.11186,0.01359l-9.2981,1.45493l2.32102,4.79991l0.09788,0.20396l-0.15381,0.16316l-3.70526,3.90247l-0.92282,5.11265l-0.02796,0.08159l-0.05593,0.06798l-5.48098,6.22764l2.349,2.84187l0.15381,0.19037l-0.15381,0.20396l-3.70526,4.81351l0,5.80611l9.88535,4.79991l0.0699,0.0272l0.04195,0.06798l7.95581,10.70121l4.96365,-4.58234l0.11186,-0.09518l0.12584,0.01359l10.66835,0.17677l0.12584,0l0.08389,0.06798l4.72595,3.7121l14.23378,-4.67753l0.58725,-0.19037l-0.15381,0.58469l-1.49608,5.87411l-0.00003,0l0.00001,0.00001z"
       fill="url(#svg_342)" />
    <path
       stroke="null"
       id="svg_339"
       fill-rule="evenodd"
       clip-rule="evenodd"
       d="m448.99336,510.07348l5.46701,8.38963l5.83054,4.96308l12.41611,-5.84691l1.6359,-4.97667l9.31209,-10.11652l5.0755,-2.25717l1.3283,-5.23503l-13.81433,4.54155l-0.18177,0.06798l-0.13982,-0.12238l-4.78189,-3.7529l-10.41668,-0.17677l-5.11745,4.73192l-6.61354,9.79018l0.00002,0.00003l0.00001,-0.00002z"
       fill="url(#svg_340)" />
    <path
       stroke="null"
       id="svg_337"
       fill-rule="evenodd"
       clip-rule="evenodd"
       d="m349.66445,478.52735l12.4301,-6.21405l9.49385,3.19541l11.50728,-1.76767l16.79252,16.14019l20.80538,20.95369l8.2075,-3.19541l5.11745,2.29797l3.64932,-1.76767l6.93513,2.1348l3.7472,-0.47591l6.58557,-9.74938l-7.98379,-10.76919l-9.99721,-4.8543l-0.18177,-0.09518l0,-0.20396l0,-6.10526l0,-0.10878l0.05593,-0.09518l3.62137,-4.69112l-2.349,-2.85547l-0.18177,-0.21755l0.18177,-0.20396l5.60683,-6.35001l0.92282,-5.11265l0.02796,-0.09518l0.05593,-0.06798l3.62137,-3.82088l-2.4189,-4.99026l-0.19575,-0.39433l0.44742,-0.06798l9.64765,-1.52291l2.29307,-2.22999l-3.64932,-10.91876l-3.63535,-0.5439l-1.77572,3.45376l-0.09788,0.17677l-0.20973,0l-5.70471,0l-1.20247,4.94948l-0.01399,0.09518l-0.08389,0.06798l-7.85795,7.04349l-0.08389,0.06798l-0.12584,0.01359l-5.03356,0.29914l-0.19575,0.01359l-0.11186,-0.16316l-4.2925,-6.26844l-9.56376,0l-0.32159,0l-0.02796,-0.31274l-0.3076,-5.19424l-0.01399,-0.20396l0.18177,-0.10878l4.20861,-2.33876l-0.60123,-5.58856l-0.01399,-0.09518l0.04195,-0.08159l5.56489,-11.72102l-3.4396,-3.63053l-23.14039,11.69382l0.58725,3.44016l0.04195,0.25835l-0.26566,0.09518l-5.01957,1.83566l-0.09788,0.04079l-0.09788,-0.0272l-4.2925,-0.88383l-14.98882,6.67635l-0.19575,0.08159l-0.16778,-0.13598l-3.62137,-2.93705l-10.82215,3.91606l-0.18177,0.06798l-0.13982,-0.12238l-5.57886,-4.21522l-8.54308,-0.28555l-3.6773,3.56253l-0.22371,0.23116l-0.2377,-0.21755l-3.85907,-3.46735l-2.60067,2.24358l-0.22371,0.19037l-0.22371,-0.17677l-4.87976,-3.84808l-6.06824,2.35236l-5.90045,3.76649l7.46645,4.84069l0.27964,0.19037l-0.19575,0.27196l-2.22315,3.03223l3.4396,3.34498l6.23602,-3.37217l0.29363,-0.14957l0.16778,0.28555l2.97819,5.12624l4.78189,-1.1014l0.37752,-0.09518l0.04195,0.39433l0.69911,9.12389l4.86578,2.7059l0.32159,0.17677l-0.20973,0.29914l-2.74049,3.7801l7.76008,11.29949l-0.00002,-0.00002l-0.00001,0.00004z"
       fill="url(#svg_338)" />
    <path
       stroke="null"
       id="svg_311"
       fill-rule="evenodd"
       clip-rule="evenodd"
       d="m147.51111,530.85041l15.47819,6.06448l14.23378,3.209l2.92226,11.00035l10.40269,5.31661l7.29867,-0.17677l10.40269,-6.03728l8.02573,2.48833l8.38927,-0.5303l2.19519,3.72571l4.8378,0.20396l1.57999,-5.69734l0.04195,-0.13598l0.12584,-0.06798l4.62808,-2.36597l-4.96365,-5.26222l-0.2377,-0.25835l0.27964,-0.21755l4.8378,-3.80729l-1.83166,-5.37099l-0.15381,-0.43512l0.4754,0l9.20022,0l5.64878,-4.58234l0.11186,-0.09518l0.15381,0.0272l5.06153,0.66628l9.45191,-12.16973l0.08389,-0.12238l0.15381,-0.01359l6.05426,-0.44871l1.81767,-2.88266l0.0699,-0.09518l0.09788,-0.04079l5.18737,-2.05321l3.94296,-4.74551l0.44742,-5.05826l-4.13871,-2.6787l-0.15381,-0.09518l0,-0.17677l0,-4.8951l0,-0.16316l0.13982,-0.09518l9.01846,-6.68995l3.07607,-6.90752l0.05593,-0.13598l0.13982,-0.04079l7.88591,-2.7059l-0.44742,-6.13246l-4.85179,-4.26961l-5.39709,-0.91103l-0.19575,-0.04079l-0.0699,-0.19037l-4.51621,-13.17595l-2.81041,-2.50193l-0.22371,-0.19037l0.18177,-0.24475l2.79642,-3.84808l-0.39149,-3.7801l-3.31376,3.63053l-0.12584,0.12238l-0.18177,-0.0272l-2.81041,-0.40792l-1.59396,5.98289l-0.04195,0.19037l-0.19575,0.05439l-15.07271,3.94327l-0.22371,0.06798l-0.13982,-0.19037l-2.53077,-3.34498l-3.41164,0l-0.08389,0l-0.08389,-0.04079l-3.25783,-1.69968l-1.76175,4.09284l-0.0699,0.13598l-0.13982,0.04079l-7.17281,2.33876l-0.11186,0.0272l-0.11186,-0.0272l-3.70526,-1.27816l-0.88088,4.05204l-0.04195,0.23116l-0.2377,0.0272l-7.29867,0.89743l0.62919,3.48094l4.44631,3.64412l0.26566,0.21755l-0.22371,0.25835l-3.76119,4.33759l-0.69911,6.56758l2.43289,5.53417l0.37752,-1.1014l1.49608,-9.02871l0,-0.05439l0.02796,-0.05439l2.43289,-4.17443l0.11186,-0.19037l0.22371,0.0272l3.15996,0.36714l0.25169,0.0272l0.04195,0.24475l0.55929,3.44016l0.01399,0.06798l-0.01399,0.04079l-1.48211,8.11769l0.55929,7.90012l1.28636,4.3104l0.04195,0.10878l-0.04195,0.10878l-1.67785,4.17443l-0.02796,0.06798l-0.05593,0.05439l-2.57271,2.31156l-0.83893,1.46852l0.89485,2.76029l0.02796,0.10878l-0.04195,0.10878l-1.11858,2.7195l-0.0699,0.16316l-0.16778,0.04079l-2.72652,0.66628l-0.18177,3.01864l0,0.08159l-0.04195,0.06798l-3.55146,5.61575l-0.0699,0.10878l-0.11186,0.04079l-5.29921,1.59091l-3.48154,4.62314l-0.11186,0.16316l-0.18177,-0.0272l-3.9849,-0.33994l-1.06264,5.87411l-0.01399,0.09518l-0.05593,0.06798l-2.99218,3.26339l-0.04195,0.05439l-0.0699,0.0272l-9.54979,4.10643l-1.2584,4.20161l-0.05593,0.16316l-0.16778,0.05439l-6.15213,1.99883l-0.34955,0.10878l-0.08389,-0.33994l-0.88088,-3.42656l-6.48769,-1.22377l-0.25169,-0.05439l-0.02796,-0.24475l-0.5453,-4.60955l-4.50224,-5.60216l-5.98434,0l-0.11186,0l-0.09788,-0.06798l-12.48603,-9.6134l-0.04195,-0.0272l-0.01399,-0.04079l-3.90101,-5.16704l-6.26398,4.33759l-0.08389,0.06798l-0.11186,0l-3.56543,-0.08159l0.16778,0.76146l0.05593,0.17677l-0.13982,0.13598l-1.91555,1.86285l0.69911,2.7059l0.04195,0.17677l-0.11186,0.12238l-2.64261,2.92345l2.36297,4.44637l0.00006,0l-0.00006,0.00003z"
       fill="url(#svg_312)" />
    <path
       stroke="null"
       id="svg_309"
       fill-rule="evenodd"
       clip-rule="evenodd"
       d="m232.38251,556.14169l3.06208,0.12238l3.10402,5.68375l23.9094,2.12121l16.06544,-9.40944l5.11745,-0.17677l1.6359,-5.15344l7.84397,-7.09788l10.94799,-0.5303l3.28579,3.01864l4.55817,-4.07924l19.35124,3.01864l2.74049,-7.27464l6.5716,-4.43277l-2.74049,-6.56758l2.92226,-17.74469l4.92171,-4.79991l-3.28579,-8.52561l-6.93513,-0.70708l4.93568,-8.87914l8.69687,-5.8605l-7.87192,-11.47627l-0.12584,-0.19037l0.13982,-0.17677l2.6566,-3.65772l-4.69798,-2.61072l-0.15381,-0.09518l-0.01399,-0.17677l-0.68512,-8.91994l-4.64206,1.0742l-0.25169,0.05439l-0.12584,-0.21755l-2.93624,-5.07185l-6.1661,3.33137l-0.22371,0.12238l-0.18177,-0.17677l-3.83109,-3.72571l-0.20973,-0.20396l0.16778,-0.23116l2.19519,-2.97784l-7.60627,-4.93587l-0.0699,-0.04079l-0.04195,-0.08159l-9.71757,-17.49993l-7.81599,0.23116l-2.88031,2.1484l0.46141,8.0497l5.60683,3.86168l0.15381,0.10878l0,0.17677l-0.2377,6.9755l0,0.16316l-0.13982,0.09518l-5.49497,3.72571l-0.11186,0.06798l-0.12584,-0.01359l-9.13032,-1.35975l-2.57271,3.54894l2.6566,2.36597l0.05593,0.05439l0.02796,0.08159l4.48826,13.06716l5.29921,0.89743l0.09788,0.01359l0.0699,0.06798l5.01957,4.41918l0.09788,0.09518l0.01399,0.13598l0.4754,6.51319l0.01399,0.25835l-0.2377,0.08159l-7.99776,2.74668l-3.04809,6.85313l-0.04195,0.08159l-0.0699,0.05439l-8.96253,6.64917l0,4.54155l4.15268,2.69229l0.16778,0.10878l-0.01399,0.19037l-0.4754,5.3574l-0.01399,0.09518l-0.0699,0.08159l-4.06879,4.88149l-0.05593,0.06798l-0.08389,0.0272l-5.15939,2.05321l-1.85961,2.93705l-0.08389,0.14957l-0.16778,0.01359l-6.06824,0.44871l-9.47987,12.21053l-0.12584,0.14957l-0.19575,-0.0272l-5.11745,-0.67987l-5.6208,4.55516l-0.09788,0.08159l-0.12584,0l-8.85068,0l1.76175,5.15344l0.0699,0.21755l-0.18177,0.13598l-4.75391,3.73931l5.01957,5.3302l0.29363,0.31274l-0.39149,0.20396l-4.89373,2.48833l-1.49608,5.42538l-0.00006,0.00005l0.00001,-0.00005z"
       fill="url(#svg_310)" />
    <path
       id="svg_301"
       style="fill:url(#svg_302)"
       d="m 632.57846,341.50567 -1.45414,-17.74469 -2.01342,-8.17208 -6.01231,-5.84691 0.5453,-8.70238 3.10402,-2.48833 -10.40269,-11.70741 0.18177,-8.17208 4.37641,-4.60955 -1.0906,-4.62314 -8.76679,-2.47474 -8.94855,-15.44672 2.19519,-1.41414 2.74049,3.72571 4.37641,-2.66511 -6.75336,-6.21405 -3.64932,1.95803 -5.83054,-3.68492 -0.0979,0.10878 -3.00615,-6.89392 H 586.046 l -0.72707,4.07924 -3.84508,-0.35353 -12.40213,-24.1491 0.72707,-7.62818 4.93568,-1.06061 -3.66331,-14.19576 7.85795,6.02368 0.18177,-17.03763 6.20806,-6.21405 9.2981,-0.17677 -5.28524,-12.59126 -2.53077,-27.15415 -6.02628,1.78127 -0.12584,0.0408 -0.12584,-0.068 -4.48826,-2.29797 -7.74609,21.64717 -0.0839,0.23116 -0.25169,-0.0136 -9.85739,-0.24475 -9.10235,2.7059 -0.3076,0.0952 -3.07607,-8.22647 -12.27629,0.72067 -2.19519,3.79369 -0.0699,0.13598 -0.15381,0.0272 -8.45917,1.94444 -1.46812,4.26961 -0.0699,0.20396 -0.20973,0.0136 -4.61409,0.47591 -1.45414,4.97667 -0.0559,0.17677 -0.16778,0.0544 -5.3132,1.6317 0.95078,5.08545 7.63423,10.79639 4.73994,0.96542 0.18177,0.0408 0.0559,0.16316 3.24385,8.24006 5.38312,-0.47591 0.13982,-0.0136 0.11186,0.0952 3.59341,3.23619 0.0839,0.0816 0.014,0.10878 1.00671,5.07185 4.94967,2.7195 3.42561,-3.10023 -9.31209,-10.83719 2.19519,-7.09788 8.93457,-3.01864 -4.73994,6.92111 1.0906,5.3302 7.1169,4.7863 3.28579,0.17677 -0.18177,4.97667 3.10402,0.70708 -2.92226,14.19576 3.28579,5.3302 1.10459,16.50733 2.54474,10.64682 3.46756,10.64682 -4.01286,4.26961 1.27237,4.07924 -2.1812,2.84187 5.64878,6.39081 0.92282,10.11652 16.97429,18.62854 50.36356,32.83788 h -8e-5 z m -0.028,-103.89825 2.12529,3.1818 8.09564,1.23736 3.27182,-1.6453 -1.98546,-3.31778 -5.97037,-0.69347 -5.53691,1.23736 v 2e-5 z m 13.91221,-4.8271 2.85235,2.76029 5.53691,-4.41918 -2.4189,-0.55749 -5.97037,2.21639 v -2e-5 z m -67.2959,-18.37018 -2.13926,6.21405 8.09564,8.83836 1.13255,-12.70004 -4.39038,-1.93085 -2.69855,-0.42153 z" />
    <path
       id="svg_313"
       style="fill:url(#svg_314)"
       d="m 512.93355,417.89624 -0.25169,-0.59828 10.76622,5.68375 3.46756,8.86555 5.28524,6.56758 6.38983,9.93975 4.55817,7.27464 5.29921,3.90247 1.6359,4.62314 1.46812,4.07924 6.5716,3.01864 0.90883,6.39081 6.75336,8.33524 0.5453,-7.27464 -0.90883,-5.50697 5.28524,-0.35353 2.01342,-0.88383 4.92171,2.48833 -4.01286,-8.17208 h -5.84451 l -6.19408,-2.6515 -7.1169,-4.97667 -4.57215,-11.35388 -2.55872,-7.28825 5.48098,-3.00504 10.22092,-0.5303 -23.00057,-15.09319 -16.23323,-14.19576 -7.4944,-13.66546 -10.22092,-6.92111 -4.73994,-5.8605 -3.28579,1.41414 -0.72707,3.37217 6.02628,4.07924 3.28579,4.79991 -1.83166,2.31156 -2.92226,-0.72067 -0.90883,4.09284 5.84451,4.256 5.84451,12.95838 -0.48937,-0.19037 0.74105,0.78865 -2e-5,2e-5 z m 117.6874,67.06271 0.89485,1.99883 2.67059,-0.92463 -0.57326,-2.76029 -1.46812,-1.99883 -1.46812,1.38693 -0.0559,2.29797 v 2e-5 z m -9.96924,9.25987 1.31431,-0.55749 0.51734,-9.20548 1.6359,-1.84926 0.3076,-2.40675 -1.73378,-1.06061 -2.67059,1.22377 -1.46812,1.12859 1.31431,4.03845 -0.4754,5.22142 1.2584,3.46735 h 2e-5 z m 9.6057,-42.15214 2.67059,0.12238 0.83893,3.41296 -1.92953,2.93705 -2.54474,3.53535 -0.25169,3.88888 -0.72707,4.8271 -0.4754,3.65772 -1.21644,-0.58469 -0.96477,-6.36362 -0.2377,-7.90012 3.27182,-3.29059 1.81767,-1.53652 -0.25169,-2.7059 v 2e-5 z m 7.63425,-20.27383 -2.54474,2.47474 0.12584,5.19424 0.11186,5.41179 0.12584,2.47474 h 2.67059 l 2.1812,-6.13246 -0.48937,-5.99648 -2.1812,-3.42656 -2e-5,-2e-5 z m 3.39765,-18.61493 -2.1812,2.24358 1.69183,4.47357 5.08949,-1.29177 -1.69183,-4.59594 z m -1.81768,-6.11886 1.45414,2.35236 2.05537,-0.70708 0.48937,-3.76649 -2.67059,-0.59828 -1.3283,2.7195 h 2e-5 z m -0.25167,-15.20197 -1.45414,2.7059 2.1812,3.05943 2.67059,-2.46115 -1.69183,-3.07303 -1.70582,-0.23116 z m -5.01959,-23.98594 -0.44742,3.01864 1.42618,3.01864 3.90101,-1.72687 0.53131,-1.98523 -5.41108,-2.32517 z m -4.69798,-18.20701 -0.71308,8.18567 3.28579,4.14722 3.02013,-1.37334 -0.62919,-8.11769 -2.39094,-2.16199 z m 1.85961,-4.32398 -0.44742,1.98523 3.02013,1.11499 1.59396,-1.72687 -2.92226,-2.48833 -1.24441,1.11499 v -2e-5 z m -8.69687,3.97045 0.44742,2.06681 2.75448,1.72687 1.3283,-3.27699 -1.51007,-2.42035 -3.02013,1.90364 z" />
    <path
       id="svg_351"
       style="fill:url(#svg_352)"
       d="m 446.82613,132.45821 -1.85961,3.50815 -10.03916,5.50697 -7.29867,-6.74435 -7.29867,-0.70708 -10.41668,6.56758 -7.10291,8.51202 -2.55872,8.70238 -4.75391,1.41414 -5.83054,-2.82827 -5.66275,0.5303 -2.92226,3.72571 -2.55872,-2.1348 -2.36297,2.48833 -2.92226,-2.66511 4.19463,-4.07924 -9.85739,-0.70708 -5.64878,4.7863 3.09005,10.29328 -5.64878,5.3302 v -7.98171 h -3.83109 l -3.83109,3.35857 -0.92282,-4.07924 5.66275,-4.96308 -6.02628,0.35353 -17.88312,8.87914 3.46756,4.07924 -5.10348,4.7863 1.99944,3.54894 3.64932,-1.76767 0.36353,5.13985 4.39038,4.97667 -6.76734,1.59091 -1.99944,2.66511 1.83166,4.256 -5.48098,0.89743 -7.29867,-2.1348 -2.19519,7.98171 -12.41611,-2.12121 v 17.74469 l -8.7528,-1.41414 -13.50671,-11.89778 4.92171,-3.37217 -8.2075,-11.89778 -5.28524,-2.47474 -8.03972,2.6515 -8.93457,-3.37217 -1.28636,13.50228 -16.23323,6.74435 -6.20806,-4.09284 0.90883,-3.19541 -16.61075,-0.17677 -4.37641,5.68375 -1.0906,3.72571 -1.10459,-5.49338 -3.10402,-2.66511 -3.64932,3.72571 -5.06153,2.46115 -0.27964,3.37217 2.36297,3.07303 0.0559,0.0544 0.014,0.0816 1.07663,5.46618 7.81599,10.7556 0.0699,0.0952 v 7.09788 l 3.9849,4.66393 0.22371,0.25835 -0.26566,0.20396 -9.11633,7.04349 -0.53131,4.07924 -0.014,0.0816 -0.0419,0.068 -2.13926,3.11382 -1.60794,7.58739 -0.0699,0.29914 -0.29363,-0.0408 -4.47427,-0.51671 -7.21478,5.72454 -0.028,0.0136 -0.028,0.0136 -2.43289,1.22377 5.73267,8.49842 0.042,0.0816 0.014,0.0816 1.94352,23.76837 v 0.14957 l -0.0979,0.0952 -5.01957,5.41179 3.31376,2.48833 0.16778,0.12238 -0.0419,0.20396 -1.35626,6.32282 2.93624,3.11382 0.0979,0.0952 v 4.55516 l 3.46756,2.32517 0.20973,0.14957 -0.0839,0.24475 -1.67785,4.3104 -0.014,0.068 -0.042,0.0408 -5.21532,6.13246 -0.50336,4.39198 h 8.62697 l 0.0979,0.0816 3.69127,2.81468 4.2226,-2.73309 0.19575,0.24475 2.22315,2.69229 0.18177,0.21755 -0.014,0.0272 2.90829,4.2832 0.19575,0.27196 -0.29363,0.19037 -3.29978,2.03962 v 3.79369 l 3.64932,0.27196 3.04809,-2.06681 0.3076,-0.21755 0.18177,0.32634 3.77518,7.04349 0.042,0.068 v 0.0952 l -0.3076,8.36245 5.0755,2.77388 -0.0559,0.24475 -2.1812,8.75677 2.72652,5.87411 6.13815,1.79487 0.36353,0.10878 -0.15381,0.33994 -4.69798,10.64682 -0.92282,13.25753 4.71197,4.88149 5.10348,-3.79369 0.0839,-0.068 h 0.11186 l 7.67617,-0.29914 2.72652,-4.73192 0.22371,-0.38073 0.32159,0.29914 4.13871,4.03845 5.39709,-6.11887 8.47316,-17.70391 0.0699,-0.14957 0.18177,-0.0272 5.66275,-0.92463 0.0839,-0.0136 0.0979,0.0408 11.14374,4.33759 0.0559,0.13598 2.39094,7.0027 6.58557,-2.90986 0.16778,-0.0816 0.15381,0.10878 4.09676,2.74668 0.0699,0.0544 0.0419,0.0952 7.41051,16.33055 9.61969,17.35036 6.05426,-3.86168 0.028,-0.0136 0.042,-0.0136 6.29195,-2.44754 0.18177,-0.068 0.15381,0.12238 4.80984,3.79369 2.60067,-2.25717 0.2377,-0.20396 0.22371,0.20396 3.85907,3.45376 3.53748,-3.44016 0.0979,-0.10878 0.15381,0.0136 8.80873,0.29914 0.11186,0.0136 0.0839,0.0544 5.50895,4.17443 10.82215,-3.91606 0.19575,-0.068 0.13982,0.12238 3.62137,2.93705 14.89095,-6.64917 0.11186,-0.0408 0.0979,0.0136 4.30649,0.89743 4.68401,-1.69968 -0.58725,-3.39937 -0.0419,-0.24475 0.22371,-0.10878 11.52126,-5.83332 -2.88031,-7.90012 -0.0699,-0.19037 0.13982,-0.14957 3.87304,-4.02486 -1.59396,-3.90247 -7.38256,-4.69112 -0.25169,-0.16316 0.13982,-0.25835 3.88702,-7.28825 -7.22875,-4.8543 -0.3076,-0.21755 0.25169,-0.27196 3.35571,-3.82088 v -16.28977 l 0.22371,-0.0816 14.14989,-5.23503 0.55929,-6.21405 0.028,-0.28555 0.29363,-0.0136 8.38927,-0.5439 1.90157,-5.04467 -0.27964,-5.23503 -0.014,-0.21755 4.25056,-1.93085 -3.04809,-10.49725 -5.63479,-3.84808 -0.19575,-0.13598 0.0699,-0.21755 3.69127,-12.74083 -5.11745,-13.29832 -0.0699,-0.17677 0.11186,-0.14957 2.86633,-3.63053 0.15381,-0.17677 0.22371,0.068 9.96924,3.31778 6.34787,-1.33255 2.22315,-3.79369 0.0839,-0.13598 0.16778,-0.0272 7.53636,-1.0742 1.34229,-4.70473 -12.54195,-25.29128 -0.042,-0.0952 0.014,-0.10878 1.27237,-6.18685 0.028,-0.12238 0.11186,-0.0816 8.40325,-5.76532 -3.15996,-5.9285 -0.12584,-0.21755 0.19575,-0.17677 8.13758,-7.41062 0.0839,-0.0816 0.11186,-0.0136 7.24273,-0.72067 4.15268,-4.52796 0.74105,-7.88653 -4.69798,-4.09284 -0.11186,-0.0952 -0.014,-0.13598 -0.2377,-5.09905 -3.00615,-4.37839 -0.15381,-0.23116 3.78915,-3.44016 -3.85907,-4.45998 -0.22371,-0.24475 0.25169,-0.20396 9.39598,-8.40324 0.0559,-0.0408 0.0559,-0.0272 4.2226,-1.69968 3.14597,-4.45998 -5.92842,-11.99296 h -7.48043 l -0.0699,-0.0272 -5.84451,-2.47474 -0.13982,-0.0544 -0.0419,-0.13598 -3.06208,-7.66898 -0.0699,-0.17677 0.13982,-0.14957 11.85682,-13.51589 v -6.63556 l -15.52014,-11.3267 -8e-5,1.1e-4 z m -159.35411,8.89273 0.92282,4.02486 3.6773,4.18802 2.30705,-0.89743 -2.76846,-4.93587 -4.13871,-2.37956 z m 27.02743,-12.55046 3.22987,4.77271 5.98434,1.19658 0.15381,-6.71715 -1.99944,-3.29059 -7.06097,-0.43512 -3.69127,2.52913 -5.67673,-0.89743 -0.46141,3.73931 3.38367,3.44016 -1.84564,2.08042 -5.36913,-4.324 -6.45973,0.59828 -0.46141,5.07185 0.61522,5.23503 2.92226,3.57613 1.07663,4.03845 5.98434,1.6453 5.52293,-0.44871 -0.44742,-5.68375 3.9849,0.44871 3.07607,-4.92228 3.6773,0.74786 2.46085,-2.69229 -2.46085,-2.39315 -5.36913,-1.49573 -4.2925,-4.92228 3.52349,-0.89743 -2e-5,-2e-5 z m 7.36857,-28.9762 -0.92282,3.29059 2.76846,0.59828 1.07663,-2.84187 -2.92226,-1.04701 h -2e-5 z m 5.3831,22.40863 2.15324,4.47357 13.81433,0.14957 3.99889,-7.16586 -2.61466,-5.52057 -2.92226,3.12741 -5.67673,-0.44871 -1.53803,2.54272 h -3.07607 l -0.46141,2.99144 -3.6773,-0.14957 h -2e-5 z m -2.30703,34.94548 v 6.26844 l 7.21478,-1.49573 6.75336,-3.42656 -2.29307,-5.08545 -4.4603,-0.59828 -3.38367,-0.74786 -2.44688,3.58974 -1.38423,1.49573 v -3e-5 z m -6.44577,-4.63673 1.23042,5.53417 h 2.90829 l 0.61522,-4.93587 -2.92226,-2.37956 -1.83166,1.78127 -2e-5,-2e-5 z m -18.58221,11.35388 7.06097,0.89743 0.3076,3.44016 -2.76846,0.74786 -3.21589,-1.94444 -1.38423,-3.14102 2e-5,2e-5 z m -95.46985,32.72911 4.20861,3.2498 1.92953,-2.96425 0.64318,-2.46115 -2.33501,-1.41414 -2.81041,-0.40792 -1.6359,3.99765 z m 219.70089,-67.82417 -0.92282,2.54272 2.30705,1.49573 2.61466,-1.49573 -0.92282,-3.14102 -3.07607,0.59828 z" />
  </g>
  <metadata
     id="metadata70">
    <rdf:RDF>
      <cc:Work
         rdf:about="">
        <dc:title>Drawing</dc:title>
      </cc:Work>
    </rdf:RDF>
  </metadata>
</svg>
